<?xml version="1.0" encoding="UTF-8" standalone="no"?><!-- Generator: Gravit.io --><svg xmlns="http://www.w3.org/2000/svg" xmlns:xlink="http://www.w3.org/1999/xlink" style="isolation:isolate" viewBox="0 0 1137 279" width="1137pt" height="279pt"><defs><clipPath id="_clipPath_W7LflWBWJpOr7dcTsBnksSLKDZFqeWAx"><rect width="1137" height="279"/></clipPath></defs><g clip-path="url(#_clipPath_W7LflWBWJpOr7dcTsBnksSLKDZFqeWAx)"><line x1="36" y1="116.5" x2="704" y2="116.5" vector-effect="non-scaling-stroke" stroke-width="1" stroke="rgb(0,0,0)" stroke-linejoin="miter" stroke-linecap="square" stroke-miterlimit="3"/><line x1="725" y1="54.5" x2="725" y2="172.5" vector-effect="non-scaling-stroke" stroke-width="1" stroke="rgb(0,0,0)" stroke-linejoin="miter" stroke-linecap="square" stroke-miterlimit="3"/><line x1="882" y1="54.5" x2="882" y2="172.5" vector-effect="non-scaling-stroke" stroke-width="1" stroke="rgb(0,0,0)" stroke-linejoin="miter" stroke-linecap="square" stroke-miterlimit="3"/><line x1="953" y1="67.125" x2="953" y2="214.375" vector-effect="non-scaling-stroke" stroke-width="1" stroke="rgb(0,0,0)" stroke-linejoin="miter" stroke-linecap="square" stroke-miterlimit="3"/><line x1="740" y1="77.5" x2="870" y2="77.5" vector-effect="non-scaling-stroke" stroke-width="1" stroke="rgb(0,0,0)" stroke-linejoin="miter" stroke-linecap="square" stroke-miterlimit="3"/><line x1="740" y1="103.5" x2="870" y2="103.5" vector-effect="non-scaling-stroke" stroke-width="1" stroke="rgb(0,0,0)" stroke-linejoin="miter" stroke-linecap="square" stroke-miterlimit="3"/><line x1="36" y1="151.5" x2="702" y2="151.5" vector-effect="non-scaling-stroke" stroke-width="1" stroke="rgb(0,0,0)" stroke-linejoin="miter" stroke-linecap="square" stroke-miterlimit="3"/><line x1="740" y1="129.5" x2="870" y2="129.5" vector-effect="non-scaling-stroke" stroke-width="1" stroke="rgb(0,0,0)" stroke-linejoin="miter" stroke-linecap="square" stroke-miterlimit="3"/><line x1="740" y1="155.5" x2="870" y2="155.5" vector-effect="non-scaling-stroke" stroke-width="1" stroke="rgb(0,0,0)" stroke-linejoin="miter" stroke-linecap="square" stroke-miterlimit="3"/><line x1="904" y1="54.5" x2="904" y2="172.5" vector-effect="non-scaling-stroke" stroke-width="1" stroke="rgb(0,0,0)" stroke-linejoin="miter" stroke-linecap="square" stroke-miterlimit="3"/><rect x="909" y="57.5" width="9" height="27" transform="matrix(1,0,0,1,0,0)" fill="rgb(0,0,0)" vector-effect="non-scaling-stroke" stroke-width="1" stroke="rgb(0,0,0)" stroke-linejoin="miter" stroke-linecap="square" stroke-miterlimit="2"/><rect x="909" y="89.5" width="9" height="13" transform="matrix(1,0,0,1,0,0)" fill="rgb(51,51,51)" vector-effect="non-scaling-stroke" stroke-width="1" stroke="rgb(62,62,62)" stroke-linejoin="miter" stroke-linecap="square" stroke-miterlimit="2"/><rect x="909" y="107.5" width="9" height="14" transform="matrix(1,0,0,1,0,0)" fill="rgb(104,104,104)" vector-effect="non-scaling-stroke" stroke-width="1" stroke="rgb(0,0,0)" stroke-linejoin="miter" stroke-linecap="square" stroke-miterlimit="2"/><rect x="909" y="126.5" width="9" height="19" transform="matrix(1,0,0,1,0,0)" fill="rgb(179,179,179)" vector-effect="non-scaling-stroke" stroke-width="1" stroke="rgb(0,0,0)" stroke-linejoin="miter" stroke-linecap="square" stroke-miterlimit="2"/><rect x="909" y="150.5" width="9" height="19" transform="matrix(1,0,0,1,0,0)" fill="rgb(238,238,238)" vector-effect="non-scaling-stroke" stroke-width="1" stroke="rgb(0,0,0)" stroke-linejoin="miter" stroke-linecap="square" stroke-miterlimit="2"/><path d=" M 922 60 C 933.333 60 929.968 67.612 932.974 79.5 C 935.211 88.348 936.667 95.5 948 95.5" fill="none" vector-effect="non-scaling-stroke" stroke-width="1" stroke="rgb(0,0,0)" stroke-linejoin="miter" stroke-linecap="square" stroke-miterlimit="3"/><g clip-path="url(#_clipPath_s9KM3Jo8U5wH0tZQhOYVP9nlHHtFUbuj)"><text transform="matrix(1,0,0,1,6.833,61.252)" style="font-family:'Open Sans';font-weight:700;font-size:20px;font-style:italic;fill:#000000;stroke:none;">How to read:</text></g><defs><clipPath id="_clipPath_s9KM3Jo8U5wH0tZQhOYVP9nlHHtFUbuj"><rect x="0" y="0" width="131" height="31.125" transform="matrix(1,0,0,1,6.833,39.875)"/></clipPath></defs><g clip-path="url(#_clipPath_yXRNxsvqXdMqe5EmsRq53yjXbqhLQTZu)"><text transform="matrix(1,0,0,1,748.695,25.127)" style="font-family:'Open Sans';font-weight:400;font-size:20px;font-style:italic;fill:#848484;stroke:none;">publication </text><text transform="matrix(1,0,0,1,782.436,42.286)" style="font-family:'Open Sans';font-weight:400;font-size:20px;font-style:italic;fill:#848484;stroke:none;">type</text></g><defs><clipPath id="_clipPath_yXRNxsvqXdMqe5EmsRq53yjXbqhLQTZu"><rect x="0" y="0" width="157" height="46.25" transform="matrix(1,0,0,1,723.5,3.75)"/></clipPath></defs><g clip-path="url(#_clipPath_fi94HZMGF8vStQWdSgsVwnNY1SlVcrNJ)"><text transform="matrix(1,0,0,1,349.602,200.446)" style="font-family:'Open Sans';font-weight:400;font-size:21px;font-style:italic;fill:#000000;stroke:none;">citation impact</text></g><defs><clipPath id="_clipPath_fi94HZMGF8vStQWdSgsVwnNY1SlVcrNJ"><rect x="0" y="0" width="176" height="41.438" transform="matrix(1,0,0,1,349.602,178)"/></clipPath></defs><g clip-path="url(#_clipPath_GTICWnglceKfjcrZDuz6Q3w807t204XJ)"><text transform="matrix(1,0,0,1,953,25.127)" style="font-family:'Open Sans';font-weight:400;font-size:20px;font-style:italic;fill:#848484;stroke:none;">application</text><text transform="matrix(1,0,0,1,953,43.103)" style="font-family:'Open Sans';font-weight:400;font-size:20px;font-style:italic;fill:#848484;stroke:none;">area</text></g><defs><clipPath id="_clipPath_GTICWnglceKfjcrZDuz6Q3w807t204XJ"><rect x="0" y="0" width="157" height="44" transform="matrix(1,0,0,1,953,3.75)"/></clipPath></defs><g clip-path="url(#_clipPath_fCpllqK4HYinvDGPyeomsHlIpErBtcwR)"><text transform="matrix(1,0,0,1,772.195,73.074)" style="font-family:'Open Sans';font-weight:400;font-size:15px;font-style:normal;font-variant-ligatures:none;letter-spacing:2;fill:#000000;stroke:none;">System</text><text transform="matrix(1,0,0,1,758.062,98.404)" style="font-family:'Open Sans';font-weight:400;font-size:15px;font-style:normal;font-variant-ligatures:none;letter-spacing:2;fill:#000000;stroke:none;">Technique</text><text transform="matrix(1,0,0,1,776.498,123.734)" style="font-family:'Open Sans';font-weight:400;font-size:15px;font-style:normal;font-variant-ligatures:none;letter-spacing:2;fill:#000000;stroke:none;">Model</text><text transform="matrix(1,0,0,1,745.947,149.064)" style="font-family:'Open Sans';font-weight:400;font-size:15px;font-style:normal;font-variant-ligatures:none;letter-spacing:2;fill:#000000;stroke:none;">Design Study</text></g><defs><clipPath id="_clipPath_fCpllqK4HYinvDGPyeomsHlIpErBtcwR"><rect x="0" y="0" width="157" height="122.5" transform="matrix(1,0,0,1,725,44)"/></clipPath></defs><g clip-path="url(#_clipPath_dht9YoqnqgXXEfnzs12RLV1RbO59V0Xn)"><text transform="matrix(1,0,0,1,962.5,93.472)" style="font-family:'Open Sans';font-weight:400;font-size:15px;font-style:normal;font-variant-ligatures:none;letter-spacing:2;fill:#000000;stroke:none;">Architecture</text><text transform="matrix(1,0,0,1,962.5,118.802)" style="font-family:'Open Sans';font-weight:400;font-size:15px;font-style:normal;font-variant-ligatures:none;letter-spacing:2;fill:#000000;stroke:none;">Remote </text><text transform="matrix(1,0,0,1,962.5,144.132)" style="font-family:'Open Sans';font-weight:400;font-size:15px;font-style:normal;font-variant-ligatures:none;letter-spacing:2;fill:#000000;stroke:none;">Maintanance</text><text transform="matrix(1,0,0,1,962.5,169.461)" style="font-family:'Open Sans';font-weight:400;font-size:15px;font-style:normal;font-variant-ligatures:none;letter-spacing:2;fill:#000000;stroke:none;">Data Visualisation</text><text transform="matrix(1,0,0,1,962.5,194.791)" style="font-family:'Open Sans';font-weight:400;font-size:15px;font-style:normal;font-variant-ligatures:none;letter-spacing:2;fill:#000000;stroke:none;">Medical</text></g><defs><clipPath id="_clipPath_dht9YoqnqgXXEfnzs12RLV1RbO59V0Xn"><rect x="0" y="0" width="171.5" height="142.375" transform="matrix(1,0,0,1,962.5,67.125)"/></clipPath></defs><line x1="49" y1="84.5" x2="49" y2="150.5" vector-effect="non-scaling-stroke" stroke-width="1" stroke="rgb(174,174,174)" stroke-linejoin="miter" stroke-linecap="square" stroke-miterlimit="3"/><line x1="119" y1="84.5" x2="119" y2="150.5" vector-effect="non-scaling-stroke" stroke-width="1" stroke="rgb(174,174,174)" stroke-linejoin="miter" stroke-linecap="square" stroke-miterlimit="3"/><line x1="194" y1="84.5" x2="194" y2="150.5" vector-effect="non-scaling-stroke" stroke-width="1" stroke="rgb(174,174,174)" stroke-linejoin="miter" stroke-linecap="square" stroke-miterlimit="3"/><line x1="268" y1="84.5" x2="268" y2="150.5" vector-effect="non-scaling-stroke" stroke-width="1" stroke="rgb(174,174,174)" stroke-linejoin="miter" stroke-linecap="square" stroke-miterlimit="3"/><line x1="352" y1="84.5" x2="352" y2="150.5" vector-effect="non-scaling-stroke" stroke-width="1" stroke="rgb(174,174,174)" stroke-linejoin="miter" stroke-linecap="square" stroke-miterlimit="3"/><line x1="436" y1="84.5" x2="436" y2="150.5" vector-effect="non-scaling-stroke" stroke-width="1" stroke="rgb(174,174,174)" stroke-linejoin="miter" stroke-linecap="square" stroke-miterlimit="3"/><line x1="520" y1="84.5" x2="520" y2="150.5" vector-effect="non-scaling-stroke" stroke-width="1" stroke="rgb(174,174,174)" stroke-linejoin="miter" stroke-linecap="square" stroke-miterlimit="3"/><line x1="604" y1="84.5" x2="604" y2="150.5" vector-effect="non-scaling-stroke" stroke-width="1" stroke="rgb(174,174,174)" stroke-linejoin="miter" stroke-linecap="square" stroke-miterlimit="3"/><line x1="688" y1="84.5" x2="688" y2="150.5" vector-effect="non-scaling-stroke" stroke-width="1" stroke="rgb(174,174,174)" stroke-linejoin="miter" stroke-linecap="square" stroke-miterlimit="3"/><circle vector-effect="non-scaling-stroke" cx="477.5755494505483" cy="224.03927492446996" r="8.601774924471272" fill="rgb(0,0,0)"/><circle vector-effect="non-scaling-stroke" cx="261.6859998008026" cy="102.29645015105717" r="8.601774924471272" fill="rgb(0,0,0)"/><circle vector-effect="non-scaling-stroke" cx="435.9999999999997" cy="116.30088746223528" r="8.601774924471272" fill="rgb(132,132,132)"/><circle vector-effect="non-scaling-stroke" cx="599.110450350253" cy="99.09733761329272" r="8.601774924471329" fill="rgb(0,0,0)"/><circle vector-effect="non-scaling-stroke" cx="587.3982250755283" cy="117.89822507552813" r="8.601774924471329" fill="rgb(0,0,0)"/><circle vector-effect="non-scaling-stroke" cx="454.8895496497454" cy="224.03927492446996" r="8.601774924471272" fill="rgb(132,132,132)"/><circle vector-effect="non-scaling-stroke" cx="270.28777472527395" cy="117.89822507552815" r="8.601774924471272" fill="rgb(132,132,132)"/><circle vector-effect="non-scaling-stroke" cx="519.9999999999997" cy="117.89822507552815" r="8.6017749244713" fill="rgb(132,132,132)"/><circle vector-effect="non-scaling-stroke" cx="604.6017749244706" cy="137.3124999999998" r="8.601774924471329" fill="rgb(132,132,132)"/><circle vector-effect="non-scaling-stroke" cx="432.20354984894203" cy="224.03927492446996" r="8.601774924471272" fill="rgb(195,195,195)"/><circle vector-effect="non-scaling-stroke" cx="194.99999999999963" cy="117.89822507552815" r="8.601774924471272" fill="rgb(195,195,195)"/><circle vector-effect="non-scaling-stroke" cx="519.9999999999997" cy="99.09733761329284" r="8.6017749244713" fill="rgb(195,195,195)"/><circle vector-effect="non-scaling-stroke" cx="499.6017749244711" cy="119.49999999999974" r="8.601774924471272" fill="rgb(195,195,195)"/><circle vector-effect="non-scaling-stroke" cx="607.7122252747247" cy="117.89822507552815" r="8.601774924471329" fill="rgb(195,195,195)"/><circle vector-effect="non-scaling-stroke" cx="628.3982250755281" cy="117.89822507552813" r="8.601774924471329" fill="rgb(195,195,195)"/><g clip-path="url(#_clipPath_SBbgZbNmUPJxGT2lBNbHvDjbdhKnOlaz)"><text transform="matrix(1,0,0,1,499.602,192.964)" style="font-family:'Open Sans';font-weight:400;font-size:14px;font-style:normal;fill:#000000;stroke:none;">color intensity used to indicate </text><text transform="matrix(1,0,0,1,499.602,212.029)" style="font-family:'Open Sans';font-weight:400;font-size:14px;font-style:normal;fill:#000000;stroke:none;">the citation impact of the </text><text transform="matrix(1,0,0,1,499.602,231.095)" style="font-family:'Open Sans';font-weight:400;font-size:14px;font-style:normal;fill:#000000;stroke:none;">paper, higher the  intensity, </text><text transform="matrix(1,0,0,1,499.602,250.16)" style="font-family:'Open Sans';font-weight:400;font-size:14px;font-style:normal;fill:#000000;stroke:none;">higher the citation impact.</text></g><defs><clipPath id="_clipPath_SBbgZbNmUPJxGT2lBNbHvDjbdhKnOlaz"><rect x="0" y="0" width="205.677" height="128" transform="matrix(1,0,0,1,499.602,178)"/></clipPath></defs><path d=" M 13.667 122.496 L 13.667 98.926 L 13.667 122.496 Z  M 11.833 98.926 L 12.75 97.192 L 13.667 95.458 L 14.583 97.192 L 15.5 98.926 L 13.667 98.926 L 13.667 98.926 L 11.833 98.926 Z " fill-rule="evenodd" fill="none" vector-effect="non-scaling-stroke" stroke-width="1" stroke="rgb(0,0,0)" stroke-linejoin="miter" stroke-linecap="square" stroke-miterlimit="3"/><g clip-path="url(#_clipPath_XCazMGmQu2sp7D65UDzxhhuICERPgJNx)"><text transform="matrix(1,0,0,1,551.553,25.033)" style="font-family:'Open Sans';font-weight:400;font-size:20px;font-style:italic;fill:#848484;stroke:none;">total number</text><text transform="matrix(1,0,0,1,592.325,41.375)" style="font-family:'Open Sans';font-weight:400;font-size:20px;font-style:italic;fill:#848484;stroke:none;">of paper</text></g><defs><clipPath id="_clipPath_XCazMGmQu2sp7D65UDzxhhuICERPgJNx"><rect x="0" y="0" width="205.677" height="58.437" transform="matrix(1,0,0,1,463.491,3.656)"/></clipPath></defs><path d=" M 65.956 163.833 L 89.526 163.833 L 89.526 163.833 L 65.956 163.833 Z  M 89.526 162 L 91.26 162.917 L 92.994 163.833 L 91.26 164.75 L 89.526 165.667 L 89.526 163.833 L 89.526 163.833 L 89.526 162 Z " fill-rule="evenodd" fill="none" vector-effect="non-scaling-stroke" stroke-width="1" stroke="rgb(0,0,0)" stroke-linejoin="miter" stroke-linecap="square" stroke-miterlimit="3"/><g clip-path="url(#_clipPath_5xuMwmG9SZD7JBZR3jz0OdLI8828VcNM)"><text transform="matrix(1,0,0,1,49,192.964)" style="font-family:'Open Sans';font-weight:400;font-size:14px;font-style:normal;fill:#000000;stroke:none;">each node represents a publication, </text><text transform="matrix(1,0,0,1,49,212.029)" style="font-family:'Open Sans';font-weight:400;font-size:14px;font-style:normal;fill:#000000;stroke:none;">each publication positioned according </text><text transform="matrix(1,0,0,1,49,231.095)" style="font-family:'Open Sans';font-weight:400;font-size:14px;font-style:normal;fill:#000000;stroke:none;">to the date it was publised (x axis) and </text><text transform="matrix(1,0,0,1,49,250.16)" style="font-family:'Open Sans';font-weight:400;font-size:14px;font-style:normal;fill:#000000;stroke:none;">venue it was published (y axis).</text></g><defs><clipPath id="_clipPath_5xuMwmG9SZD7JBZR3jz0OdLI8828VcNM"><rect x="0" y="0" width="262" height="198" transform="matrix(1,0,0,1,49,178)"/></clipPath></defs><g clip-path="url(#_clipPath_GF4zRovk9ZWqFXzhgsFxdQFG9QsRabOr)"><text transform="matrix(0,-1,1,0,16.453,152.451)" style="font-family:'Open Sans';font-weight:400;font-size:9px;font-style:normal;fill:#000000;stroke:none;">y -axis</text></g><defs><clipPath id="_clipPath_GF4zRovk9ZWqFXzhgsFxdQFG9QsRabOr"><rect x="0" y="0" width="55.097" height="29" transform="matrix(0,-1,1,0,6.833,152.451)"/></clipPath></defs><g clip-path="url(#_clipPath_AHRlLxKM7attgR6NtSM952nbzZ97t8AC)"><text transform="matrix(1,0,0,1,36,166.62)" style="font-family:'Open Sans';font-weight:400;font-size:9px;font-style:normal;fill:#000000;stroke:none;">x -axis</text></g><defs><clipPath id="_clipPath_AHRlLxKM7attgR6NtSM952nbzZ97t8AC"><rect x="0" y="0" width="55.097" height="29" transform="matrix(1,0,0,1,36,157)"/></clipPath></defs><g clip-path="url(#_clipPath_6o1MUdVZ0RRBOTtHKjSLrtD3gEKkn9ln)"><text transform="matrix(1,0,0,1,706.826,121.587)" style="font-family:'Open Sans';font-weight:700;font-size:10px;font-style:normal;fill:#000000;stroke:none;">**</text></g><defs><clipPath id="_clipPath_6o1MUdVZ0RRBOTtHKjSLrtD3gEKkn9ln"><rect x="0" y="0" width="17.45" height="13.618" transform="matrix(1,0,0,1,704.55,110.898)"/></clipPath></defs><path d=" M 672 27 C 697.5 28.5 719.75 63.875 713 106" fill="none" vector-effect="non-scaling-stroke" stroke-width="1" stroke="rgb(0,0,0)" stroke-linejoin="miter" stroke-linecap="square" stroke-miterlimit="3"/><line x1="712.8" y1="107" x2="712" y2="101" vector-effect="non-scaling-stroke" stroke-width="1" stroke="rgb(0,0,0)" stroke-linejoin="miter" stroke-linecap="square" stroke-miterlimit="3"/><line x1="713" y1="107" x2="716" y2="102" vector-effect="non-scaling-stroke" stroke-width="1" stroke="rgb(0,0,0)" stroke-linejoin="miter" stroke-linecap="square" stroke-miterlimit="3"/><line x1="702" y1="152.451" x2="702" y2="84.5" vector-effect="non-scaling-stroke" stroke-width="1" stroke="rgb(0,0,0)" stroke-linejoin="miter" stroke-linecap="square" stroke-miterlimit="3"/></g></svg>