<svg version="1.1" viewBox="0.0 0.0 600.0 436.0" fill="none" stroke="none" stroke-linecap="square" stroke-miterlimit="10" width="600" height="436" xmlns:xlink="http://www.w3.org/1999/xlink" xmlns="http://www.w3.org/2000/svg"><path fill="#ffffff" d="M0 0L600.0 0L600.0 436.0L0 436.0L0 0Z" fill-rule="nonzero"/><path stroke="#333333" stroke-width="1.0" stroke-linecap="butt" d="M136.5 60.5L136.5 394.5" fill-rule="nonzero"/><path stroke="#cccccc" stroke-width="1.0" stroke-linecap="butt" d="M225.5 60.5L225.5 394.5" fill-rule="nonzero"/><path stroke="#cccccc" stroke-width="1.0" stroke-linecap="butt" d="M313.5 60.5L313.5 394.5" fill-rule="nonzero"/><path stroke="#cccccc" stroke-width="1.0" stroke-linecap="butt" d="M401.5 60.5L401.5 394.5" fill-rule="nonzero"/><path stroke="#cccccc" stroke-width="1.0" stroke-linecap="butt" d="M489.5 60.5L489.5 394.5" fill-rule="nonzero"/><path stroke="#cccccc" stroke-width="1.0" stroke-linecap="butt" d="M578.5 60.5L578.5 394.5" fill-rule="nonzero"/><clipPath id="id_0"><path d="M136.8 60.333332L578.2 60.333332L578.2 394.2L136.8 394.2L136.8 60.333332Z" clip-rule="nonzero"/></clipPath><path stroke="#000000" stroke-width="2.0" stroke-linecap="butt" stroke-opacity="0.0" clip-path="url(#id_0)" d="M137.0 93.0L137.0 72.0L520.0 72.0C521.10455 72.0 522.0 72.89543 522.0 74.0L522.0 91.0C522.0 92.10457 521.10455 93.0 520.0 93.0Z" fill-rule="nonzero"/><path fill="#4285f4" clip-path="url(#id_0)" d="M137.0 93.0L137.0 72.0L520.0 72.0C521.10455 72.0 522.0 72.89543 522.0 74.0L522.0 91.0C522.0 92.10457 521.10455 93.0 520.0 93.0Z" fill-rule="nonzero"/><path stroke="#000000" stroke-width="2.0" stroke-linecap="butt" stroke-opacity="0.0" clip-path="url(#id_0)" d="M137.0 125.0L137.0 104.0L322.0 104.0C323.10458 104.0 324.0 104.89543 324.0 106.0L324.0 123.0C324.0 124.10457 323.10458 125.0 322.0 125.0Z" fill-rule="nonzero"/><path fill="#4285f4" clip-path="url(#id_0)" d="M137.0 125.0L137.0 104.0L322.0 104.0C323.10458 104.0 324.0 104.89543 324.0 106.0L324.0 123.0C324.0 124.10457 323.10458 125.0 322.0 125.0Z" fill-rule="nonzero"/><path stroke="#000000" stroke-width="2.0" stroke-linecap="butt" stroke-opacity="0.0" clip-path="url(#id_0)" d="M137.0 158.0L137.0 137.0L297.0 137.0C298.10458 137.0 299.0 137.89543 299.0 139.0L299.0 156.0C299.0 157.10457 298.10458 158.0 297.0 158.0Z" fill-rule="nonzero"/><path fill="#4285f4" clip-path="url(#id_0)" d="M137.0 158.0L137.0 137.0L297.0 137.0C298.10458 137.0 299.0 137.89543 299.0 139.0L299.0 156.0C299.0 157.10457 298.10458 158.0 297.0 158.0Z" fill-rule="nonzero"/><path stroke="#000000" stroke-width="2.0" stroke-linecap="butt" stroke-opacity="0.0" clip-path="url(#id_0)" d="M137.0 190.0L137.0 169.0L294.0 169.0C295.10458 169.0 296.0 169.89543 296.0 171.0L296.0 188.0C296.0 189.10457 295.10458 190.0 294.0 190.0Z" fill-rule="nonzero"/><path fill="#4285f4" clip-path="url(#id_0)" d="M137.0 190.0L137.0 169.0L294.0 169.0C295.10458 169.0 296.0 169.89543 296.0 171.0L296.0 188.0C296.0 189.10457 295.10458 190.0 294.0 190.0Z" fill-rule="nonzero"/><path stroke="#000000" stroke-width="2.0" stroke-linecap="butt" stroke-opacity="0.0" clip-path="url(#id_0)" d="M137.0 222.0L137.0 201.0L258.0 201.0C259.10458 201.0 260.0 201.89543 260.0 203.0L260.0 220.0C260.0 221.10457 259.10458 222.0 258.0 222.0Z" fill-rule="nonzero"/><path fill="#4285f4" clip-path="url(#id_0)" d="M137.0 222.0L137.0 201.0L258.0 201.0C259.10458 201.0 260.0 201.89543 260.0 203.0L260.0 220.0C260.0 221.10457 259.10458 222.0 258.0 222.0Z" fill-rule="nonzero"/><path stroke="#000000" stroke-width="2.0" stroke-linecap="butt" stroke-opacity="0.0" clip-path="url(#id_0)" d="M137.0 254.0L137.0 233.0L244.0 233.0C245.10457 233.0 246.0 233.89543 246.0 235.0L246.0 252.0C246.0 253.10457 245.10457 254.0 244.0 254.0Z" fill-rule="nonzero"/><path fill="#4285f4" clip-path="url(#id_0)" d="M137.0 254.0L137.0 233.0L244.0 233.0C245.10457 233.0 246.0 233.89543 246.0 235.0L246.0 252.0C246.0 253.10457 245.10457 254.0 244.0 254.0Z" fill-rule="nonzero"/><path stroke="#000000" stroke-width="2.0" stroke-linecap="butt" stroke-opacity="0.0" clip-path="url(#id_0)" d="M137.0 287.0L137.0 266.0L230.0 266.0C231.10457 266.0 232.0 266.89542 232.0 268.0L232.0 285.0C232.0 286.10458 231.10457 287.0 230.0 287.0Z" fill-rule="nonzero"/><path fill="#4285f4" clip-path="url(#id_0)" d="M137.0 287.0L137.0 266.0L230.0 266.0C231.10457 266.0 232.0 266.89542 232.0 268.0L232.0 285.0C232.0 286.10458 231.10457 287.0 230.0 287.0Z" fill-rule="nonzero"/><path stroke="#000000" stroke-width="2.0" stroke-linecap="butt" stroke-opacity="0.0" clip-path="url(#id_0)" d="M137.0 319.0L137.0 298.0L223.0 298.0C224.10457 298.0 225.0 298.89542 225.0 300.0L225.0 317.0C225.0 318.10458 224.10457 319.0 223.0 319.0Z" fill-rule="nonzero"/><path fill="#4285f4" clip-path="url(#id_0)" d="M137.0 319.0L137.0 298.0L223.0 298.0C224.10457 298.0 225.0 298.89542 225.0 300.0L225.0 317.0C225.0 318.10458 224.10457 319.0 223.0 319.0Z" fill-rule="nonzero"/><path stroke="#000000" stroke-width="2.0" stroke-linecap="butt" stroke-opacity="0.0" clip-path="url(#id_0)" d="M137.0 351.0L137.0 330.0L188.0 330.0C189.10457 330.0 190.0 330.89542 190.0 332.0L190.0 349.0C190.0 350.10458 189.10457 351.0 188.0 351.0Z" fill-rule="nonzero"/><path fill="#4285f4" clip-path="url(#id_0)" d="M137.0 351.0L137.0 330.0L188.0 330.0C189.10457 330.0 190.0 330.89542 190.0 332.0L190.0 349.0C190.0 350.10458 189.10457 351.0 188.0 351.0Z" fill-rule="nonzero"/><path stroke="#000000" stroke-width="2.0" stroke-linecap="butt" stroke-opacity="0.0" clip-path="url(#id_0)" d="M137.0 383.0L137.0 362.0L167.0 362.0C168.10457 362.0 169.0 362.89542 169.0 364.0L169.0 381.0C169.0 382.10458 168.10457 383.0 167.0 383.0Z" fill-rule="nonzero"/><path fill="#4285f4" clip-path="url(#id_0)" d="M137.0 383.0L137.0 362.0L167.0 362.0C168.10457 362.0 169.0 362.89542 169.0 364.0L169.0 381.0C169.0 382.10458 168.10457 383.0 167.0 383.0Z" fill-rule="nonzero"/><path stroke="#4285f4" stroke-width="3.0" stroke-linejoin="round" stroke-linecap="round" d="M500.5883 86.5L498.9008 86.5L498.9008 79.96875L496.88516 80.59375L496.88516 79.21875L500.4164 77.953125L500.5883 77.953125L500.5883 86.5ZM509.2289 82.96875Q509.2289 84.734375 508.49454 85.6875Q507.76016 86.625 506.3539 86.625Q504.94766 86.625 504.2133 85.703125Q503.4789 84.78125 503.4633 83.0625L503.4633 81.484375Q503.4633 79.703125 504.19766 78.78125Q504.94766 77.84375 506.3383 77.84375Q507.7289 77.84375 508.4633 78.765625Q509.2133 79.6875 509.2289 81.40625L509.2289 82.96875ZM507.5258 81.25Q507.5258 80.1875 507.2289 79.703125Q506.94766 79.21875 506.3383 79.21875Q505.74454 79.21875 505.44766 79.6875Q505.1664 80.140625 505.1508 81.125L505.1508 83.1875Q505.1508 84.234375 505.43204 84.75Q505.7133 85.25 506.3539 85.25Q506.9633 85.25 507.24454 84.765625Q507.5258 84.28125 507.5258 83.28125L507.5258 81.25ZM514.4477 83.09375Q513.7758 83.734375 512.9008 83.734375Q511.76016 83.734375 511.07266 82.96875Q510.4008 82.1875 510.4008 80.875Q510.4008 80.03125 510.76016 79.328125Q511.13516 78.625 511.7914 78.234375Q512.4477 77.84375 513.2758 77.84375Q514.11957 77.84375 514.7758 78.265625Q515.43207 78.6875 515.79144 79.484375Q516.1508 80.28125 516.16644 81.296875L516.16644 81.921875Q516.16644 84.0625 515.10394 85.28125Q514.04144 86.5 512.0883 86.578125L511.68204 86.578125L511.68204 85.171875L512.05707 85.15625Q514.2602 85.0625 514.4477 83.09375ZM513.30707 82.4375Q513.72894 82.4375 514.0102 82.234375Q514.30707 82.015625 514.4633 81.71875L514.4633 81.03125Q514.4633 80.171875 514.1352 79.703125Q513.80707 79.21875 513.2602 79.21875Q512.74457 79.21875 512.41644 79.6875Q512.0883 80.140625 512.0883 80.84375Q512.0883 81.546875 512.4008 82.0Q512.72894 82.4375 513.30707 82.4375Z" fill-rule="nonzero"/><path fill="#ffffff" d="M500.5883 86.5L498.9008 86.5L498.9008 79.96875L496.88516 80.59375L496.88516 79.21875L500.4164 77.953125L500.5883 77.953125L500.5883 86.5ZM509.2289 82.96875Q509.2289 84.734375 508.49454 85.6875Q507.76016 86.625 506.3539 86.625Q504.94766 86.625 504.2133 85.703125Q503.4789 84.78125 503.4633 83.0625L503.4633 81.484375Q503.4633 79.703125 504.19766 78.78125Q504.94766 77.84375 506.3383 77.84375Q507.7289 77.84375 508.4633 78.765625Q509.2133 79.6875 509.2289 81.40625L509.2289 82.96875ZM507.5258 81.25Q507.5258 80.1875 507.2289 79.703125Q506.94766 79.21875 506.3383 79.21875Q505.74454 79.21875 505.44766 79.6875Q505.1664 80.140625 505.1508 81.125L505.1508 83.1875Q505.1508 84.234375 505.43204 84.75Q505.7133 85.25 506.3539 85.25Q506.9633 85.25 507.24454 84.765625Q507.5258 84.28125 507.5258 83.28125L507.5258 81.25ZM514.44763 83.09375Q513.77576 83.734375 512.90076 83.734375Q511.76016 83.734375 511.07266 82.96875Q510.4008 82.1875 510.4008 80.875Q510.4008 80.03125 510.76016 79.328125Q511.13516 78.625 511.7914 78.234375Q512.44763 77.84375 513.27576 77.84375Q514.1195 77.84375 514.77576 78.265625Q515.432 78.6875 515.7914 79.484375Q516.15076 80.28125 516.1664 81.296875L516.1664 81.921875Q516.1664 84.0625 515.1039 85.28125Q514.0414 86.5 512.08826 86.578125L511.68204 86.578125L511.68204 85.171875L512.057 85.15625Q514.26013 85.0625 514.44763 83.09375ZM513.307 82.4375Q513.7289 82.4375 514.01013 82.234375Q514.307 82.015625 514.46326 81.71875L514.46326 81.03125Q514.46326 80.171875 514.13513 79.703125Q513.807 79.21875 513.26013 79.21875Q512.7445 79.21875 512.4164 79.6875Q512.08826 80.140625 512.08826 80.84375Q512.08826 81.546875 512.40076 82.0Q512.7289 82.4375 513.307 82.4375Z" fill-rule="nonzero"/><path stroke="#4285f4" stroke-width="3.0" stroke-linejoin="round" stroke-linecap="round" d="M305.98172 114.296875L306.48172 109.96875L311.26297 109.96875L311.26297 111.375L307.87234 111.375L307.6536 113.21875Q308.26297 112.890625 308.93484 112.890625Q310.1536 112.890625 310.8411 113.65625Q311.54422 114.40625 311.54422 115.765625Q311.54422 116.59375 311.18484 117.25Q310.8411 117.890625 310.18484 118.265625Q309.54422 118.625 308.6536 118.625Q307.88797 118.625 307.2161 118.3125Q306.55984 117.984375 306.16922 117.421875Q305.79422 116.859375 305.76297 116.125L307.45047 116.125Q307.49734 116.65625 307.80984 116.953125Q308.13797 117.25 308.6536 117.25Q309.23172 117.25 309.5286 116.84375Q309.8411 116.421875 309.8411 115.671875Q309.8411 114.9375 309.48172 114.5625Q309.13797 114.171875 308.48172 114.171875Q307.87234 114.171875 307.49734 114.484375L307.3411 114.640625L305.98172 114.296875ZM314.45047 113.484375L315.35672 113.484375Q315.99734 113.484375 316.30984 113.171875Q316.62234 112.84375 316.62234 112.3125Q316.62234 111.796875 316.30984 111.515625Q316.01297 111.21875 315.4661 111.21875Q314.98172 111.21875 314.6536 111.484375Q314.32547 111.75 314.32547 112.171875L312.63797 112.171875Q312.63797 111.515625 312.99734 110.984375Q313.35672 110.453125 313.99734 110.15625Q314.6536 109.84375 315.43484 109.84375Q316.7786 109.84375 317.54422 110.5Q318.32547 111.140625 318.32547 112.28125Q318.32547 112.875 317.9661 113.375Q317.60672 113.859375 317.0286 114.109375Q317.74734 114.375 318.0911 114.890625Q318.45047 115.40625 318.45047 116.109375Q318.45047 117.25 317.62234 117.9375Q316.79422 118.625 315.43484 118.625Q314.1536 118.625 313.3411 117.953125Q312.5286 117.265625 312.5286 116.15625L314.2161 116.15625Q314.2161 116.640625 314.57547 116.953125Q314.95047 117.25 315.4661 117.25Q316.07547 117.25 316.41922 116.9375Q316.76297 116.609375 316.76297 116.078125Q316.76297 114.8125 315.35672 114.8125L314.45047 114.8125L314.45047 113.484375Z" fill-rule="nonzero"/><path fill="#ffffff" d="M305.98172 114.296875L306.48172 109.96875L311.26297 109.96875L311.26297 111.375L307.87234 111.375L307.6536 113.21875Q308.26297 112.890625 308.93484 112.890625Q310.1536 112.890625 310.8411 113.65625Q311.54422 114.40625 311.54422 115.765625Q311.54422 116.59375 311.18484 117.25Q310.8411 117.890625 310.18484 118.265625Q309.54422 118.625 308.6536 118.625Q307.88797 118.625 307.2161 118.3125Q306.55984 117.984375 306.16922 117.421875Q305.79422 116.859375 305.76297 116.125L307.45047 116.125Q307.49734 116.65625 307.80984 116.953125Q308.13797 117.25 308.6536 117.25Q309.23172 117.25 309.5286 116.84375Q309.8411 116.421875 309.8411 115.671875Q309.8411 114.9375 309.48172 114.5625Q309.13797 114.171875 308.48172 114.171875Q307.87234 114.171875 307.49734 114.484375L307.3411 114.640625L305.98172 114.296875ZM314.45047 113.484375L315.35672 113.484375Q315.99734 113.484375 316.30984 113.171875Q316.62234 112.84375 316.62234 112.3125Q316.62234 111.796875 316.30984 111.515625Q316.01297 111.21875 315.4661 111.21875Q314.98172 111.21875 314.6536 111.484375Q314.32547 111.75 314.32547 112.171875L312.63797 112.171875Q312.63797 111.515625 312.99734 110.984375Q313.35672 110.453125 313.99734 110.15625Q314.6536 109.84375 315.43484 109.84375Q316.7786 109.84375 317.54422 110.5Q318.32547 111.140625 318.32547 112.28125Q318.32547 112.875 317.9661 113.375Q317.60672 113.859375 317.0286 114.109375Q317.74734 114.375 318.0911 114.890625Q318.45047 115.40625 318.45047 116.109375Q318.45047 117.25 317.62234 117.9375Q316.79422 118.625 315.43484 118.625Q314.1536 118.625 313.3411 117.953125Q312.5286 117.265625 312.5286 116.15625L314.2161 116.15625Q314.2161 116.640625 314.57547 116.953125Q314.95047 117.25 315.4661 117.25Q316.07547 117.25 316.41922 116.9375Q316.76297 116.609375 316.76297 116.078125Q316.76297 114.8125 315.35672 114.8125L314.45047 114.8125L314.45047 113.484375Z" fill-rule="nonzero"/><path stroke="#4285f4" stroke-width="3.0" stroke-linejoin="round" stroke-linecap="round" d="M286.02896 148.28125L286.9977 148.28125L286.9977 149.65625L286.02896 149.65625L286.02896 151.5L284.32584 151.5L284.32584 149.65625L280.84146 149.65625L280.76334 148.59375L284.3102 142.96875L286.02896 142.96875L286.02896 148.28125ZM282.45084 148.28125L284.32584 148.28125L284.32584 145.28125L284.21646 145.46875L282.45084 148.28125ZM292.6071 142.875L292.6071 144.28125L292.45084 144.28125Q291.2946 144.29688 290.59146 144.875Q289.90396 145.45312 289.76334 146.48438Q290.4352 145.79688 291.46646 145.79688Q292.59146 145.79688 293.2477 146.59375Q293.90396 147.39062 293.90396 148.6875Q293.90396 149.51562 293.5446 150.1875Q293.1852 150.85938 292.51334 151.25Q291.8571 151.625 291.02896 151.625Q289.6852 151.625 288.8571 150.6875Q288.02896 149.73438 288.02896 148.17188L288.02896 147.5625Q288.02896 146.17188 288.5446 145.10938Q289.07584 144.04688 290.0446 143.46875Q291.02896 142.89062 292.32584 142.875L292.6071 142.875ZM290.95084 147.15625Q290.5446 147.15625 290.20084 147.375Q289.8727 147.57812 289.71646 147.9375L289.71646 148.45312Q289.71646 149.29688 290.0446 149.78125Q290.38834 150.25 290.9977 150.25Q291.5446 150.25 291.8727 149.82812Q292.21646 149.39062 292.21646 148.70312Q292.21646 148.0 291.8727 147.57812Q291.52896 147.15625 290.95084 147.15625Z" fill-rule="nonzero"/><path fill="#ffffff" d="M286.02896 148.28125L286.9977 148.28125L286.9977 149.65625L286.02896 149.65625L286.02896 151.5L284.32584 151.5L284.32584 149.65625L280.84146 149.65625L280.76334 148.59375L284.3102 142.96875L286.02896 142.96875L286.02896 148.28125ZM282.45084 148.28125L284.32584 148.28125L284.32584 145.28125L284.21646 145.46875L282.45084 148.28125ZM292.6071 142.875L292.6071 144.28125L292.45084 144.28125Q291.2946 144.29688 290.59146 144.875Q289.90396 145.45312 289.76334 146.48438Q290.4352 145.79688 291.46646 145.79688Q292.59146 145.79688 293.2477 146.59375Q293.90396 147.39062 293.90396 148.6875Q293.90396 149.51562 293.5446 150.1875Q293.1852 150.85938 292.51334 151.25Q291.8571 151.625 291.02896 151.625Q289.6852 151.625 288.8571 150.6875Q288.02896 149.73438 288.02896 148.17188L288.02896 147.5625Q288.02896 146.17188 288.5446 145.10938Q289.07584 144.04688 290.0446 143.46875Q291.02896 142.89062 292.32584 142.875L292.6071 142.875ZM290.95084 147.15625Q290.5446 147.15625 290.20084 147.375Q289.8727 147.57812 289.71646 147.9375L289.71646 148.45312Q289.71646 149.29688 290.0446 149.78125Q290.38834 150.25 290.9977 150.25Q291.5446 150.25 291.8727 149.82812Q292.21646 149.39062 292.21646 148.70312Q292.21646 148.0 291.8727 147.57812Q291.52896 147.15625 290.95084 147.15625Z" fill-rule="nonzero"/><path stroke="#4285f4" stroke-width="3.0" stroke-linejoin="round" stroke-linecap="round" d="M282.49774 180.28125L283.4665 180.28125L283.4665 181.65625L282.49774 181.65625L282.49774 183.5L280.79462 183.5L280.79462 181.65625L277.31024 181.65625L277.23212 180.59375L280.779 174.96875L282.49774 174.96875L282.49774 180.28125ZM278.91962 180.28125L280.79462 180.28125L280.79462 177.28125L280.68524 177.46875L278.91962 180.28125ZM284.73212 179.29688L285.23212 174.96875L290.01337 174.96875L290.01337 176.375L286.62274 176.375L286.404 178.21875Q287.01337 177.89062 287.68524 177.89062Q288.904 177.89062 289.5915 178.65625Q290.29462 179.40625 290.29462 180.76562Q290.29462 181.59375 289.93524 182.25Q289.5915 182.89062 288.93524 183.26562Q288.29462 183.625 287.404 183.625Q286.63837 183.625 285.9665 183.3125Q285.31024 182.98438 284.91962 182.42188Q284.54462 181.85938 284.51337 181.125L286.20087 181.125Q286.24774 181.65625 286.56024 181.95312Q286.88837 182.25 287.404 182.25Q287.98212 182.25 288.279 181.84375Q288.5915 181.42188 288.5915 180.67188Q288.5915 179.9375 288.23212 179.5625Q287.88837 179.17188 287.23212 179.17188Q286.62274 179.17188 286.24774 179.48438L286.0915 179.64062L284.73212 179.29688Z" fill-rule="nonzero"/><path fill="#ffffff" d="M282.49774 180.28125L283.4665 180.28125L283.4665 181.65625L282.49774 181.65625L282.49774 183.5L280.79462 183.5L280.79462 181.65625L277.31024 181.65625L277.23212 180.59375L280.779 174.96875L282.49774 174.96875L282.49774 180.28125ZM278.91962 180.28125L280.79462 180.28125L280.79462 177.28125L280.68524 177.46875L278.91962 180.28125ZM284.73212 179.29688L285.23212 174.96875L290.01337 174.96875L290.01337 176.375L286.62274 176.375L286.404 178.21875Q287.01337 177.89062 287.68524 177.89062Q288.904 177.89062 289.5915 178.65625Q290.29462 179.40625 290.29462 180.76562Q290.29462 181.59375 289.93524 182.25Q289.5915 182.89062 288.93524 183.26562Q288.29462 183.625 287.404 183.625Q286.63837 183.625 285.9665 183.3125Q285.31024 182.98438 284.91962 182.42188Q284.54462 181.85938 284.51337 181.125L286.20087 181.125Q286.24774 181.65625 286.56024 181.95312Q286.88837 182.25 287.404 182.25Q287.98212 182.25 288.279 181.84375Q288.5915 181.42188 288.5915 180.67188Q288.5915 179.9375 288.23212 179.5625Q287.88837 179.17188 287.23212 179.17188Q286.62274 179.17188 286.24774 179.48438L286.0915 179.64062L284.73212 179.29688Z" fill-rule="nonzero"/><path stroke="#4285f4" stroke-width="3.0" stroke-linejoin="round" stroke-linecap="round" d="M243.88887 210.48438L244.79512 210.48438Q245.43575 210.48438 245.74825 210.17188Q246.06075 209.84375 246.06075 209.3125Q246.06075 208.79688 245.74825 208.51562Q245.45137 208.21875 244.9045 208.21875Q244.42012 208.21875 244.092 208.48438Q243.76387 208.75 243.76387 209.17188L242.07637 209.17188Q242.07637 208.51562 242.43575 207.98438Q242.79512 207.45312 243.43575 207.15625Q244.092 206.84375 244.87325 206.84375Q246.217 206.84375 246.98262 207.5Q247.76387 208.14062 247.76387 209.28125Q247.76387 209.875 247.4045 210.375Q247.04512 210.85938 246.467 211.10938Q247.18575 211.375 247.5295 211.89062Q247.88887 212.40625 247.88887 213.10938Q247.88887 214.25 247.06075 214.9375Q246.23262 215.625 244.87325 215.625Q243.592 215.625 242.7795 214.95312Q241.967 214.26562 241.967 213.15625L243.6545 213.15625Q243.6545 213.64062 244.01387 213.95312Q244.38887 214.25 244.9045 214.25Q245.51387 214.25 245.85762 213.9375Q246.20137 213.60938 246.20137 213.07812Q246.20137 211.8125 244.79512 211.8125L243.88887 211.8125L243.88887 210.48438ZM249.42012 211.29688L249.92012 206.96875L254.70137 206.96875L254.70137 208.375L251.31075 208.375L251.092 210.21875Q251.70137 209.89062 252.37325 209.89062Q253.592 209.89062 254.2795 210.65625Q254.98262 211.40625 254.98262 212.76562Q254.98262 213.59375 254.62325 214.25Q254.2795 214.89062 253.62325 215.26562Q252.98262 215.625 252.092 215.625Q251.32637 215.625 250.6545 215.3125Q249.99825 214.98438 249.60762 214.42188Q249.23262 213.85938 249.20137 213.125L250.88887 213.125Q250.93575 213.65625 251.24825 213.95312Q251.57637 214.25 252.092 214.25Q252.67012 214.25 252.967 213.84375Q253.2795 213.42188 253.2795 212.67188Q253.2795 211.9375 252.92012 211.5625Q252.57637 211.17188 251.92012 211.17188Q251.31075 211.17188 250.93575 211.48438L250.7795 211.64062L249.42012 211.29688Z" fill-rule="nonzero"/><path fill="#ffffff" d="M243.88887 210.48438L244.79512 210.48438Q245.43575 210.48438 245.74825 210.17188Q246.06075 209.84375 246.06075 209.3125Q246.06075 208.79688 245.74825 208.51562Q245.45137 208.21875 244.9045 208.21875Q244.42012 208.21875 244.092 208.48438Q243.76387 208.75 243.76387 209.17188L242.07637 209.17188Q242.07637 208.51562 242.43575 207.98438Q242.79512 207.45312 243.43575 207.15625Q244.092 206.84375 244.87325 206.84375Q246.217 206.84375 246.98262 207.5Q247.76387 208.14062 247.76387 209.28125Q247.76387 209.875 247.4045 210.375Q247.04512 210.85938 246.467 211.10938Q247.18575 211.375 247.5295 211.89062Q247.88887 212.40625 247.88887 213.10938Q247.88887 214.25 247.06075 214.9375Q246.23262 215.625 244.87325 215.625Q243.592 215.625 242.7795 214.95312Q241.967 214.26562 241.967 213.15625L243.6545 213.15625Q243.6545 213.64062 244.01387 213.95312Q244.38887 214.25 244.9045 214.25Q245.51387 214.25 245.85762 213.9375Q246.20137 213.60938 246.20137 213.07812Q246.20137 211.8125 244.79512 211.8125L243.88887 211.8125L243.88887 210.48438ZM249.42012 211.29688L249.92012 206.96875L254.70137 206.96875L254.70137 208.375L251.31075 208.375L251.092 210.21875Q251.70137 209.89062 252.37325 209.89062Q253.592 209.89062 254.2795 210.65625Q254.98262 211.40625 254.98262 212.76562Q254.98262 213.59375 254.62325 214.25Q254.2795 214.89062 253.62325 215.26562Q252.98262 215.625 252.092 215.625Q251.32637 215.625 250.6545 215.3125Q249.99825 214.98438 249.60762 214.42188Q249.23262 213.85938 249.20137 213.125L250.88887 213.125Q250.93575 213.65625 251.24825 213.95312Q251.57637 214.25 252.092 214.25Q252.67012 214.25 252.967 213.84375Q253.2795 213.42188 253.2795 212.67188Q253.2795 211.9375 252.92012 211.5625Q252.57637 211.17188 251.92012 211.17188Q251.31075 211.17188 250.93575 211.48438L250.7795 211.64062L249.42012 211.29688Z" fill-rule="nonzero"/><path stroke="#4285f4" stroke-width="3.0" stroke-linejoin="round" stroke-linecap="round" d="M229.76407 242.48438L230.67032 242.48438Q231.31094 242.48438 231.62344 242.17188Q231.93594 241.84375 231.93594 241.3125Q231.93594 240.79688 231.62344 240.51562Q231.32657 240.21875 230.7797 240.21875Q230.29532 240.21875 229.9672 240.48438Q229.63907 240.75 229.63907 241.17188L227.95157 241.17188Q227.95157 240.51562 228.31094 239.98438Q228.67032 239.45312 229.31094 239.15625Q229.9672 238.84375 230.74844 238.84375Q232.0922 238.84375 232.85782 239.5Q233.63907 240.14062 233.63907 241.28125Q233.63907 241.875 233.2797 242.375Q232.92032 242.85938 232.3422 243.10938Q233.06094 243.375 233.4047 243.89062Q233.76407 244.40625 233.76407 245.10938Q233.76407 246.25 232.93594 246.9375Q232.10782 247.625 230.74844 247.625Q229.4672 247.625 228.6547 246.95312Q227.8422 246.26562 227.8422 245.15625L229.5297 245.15625Q229.5297 245.64062 229.88907 245.95312Q230.26407 246.25 230.7797 246.25Q231.38907 246.25 231.73282 245.9375Q232.07657 245.60938 232.07657 245.07812Q232.07657 243.8125 230.67032 243.8125L229.76407 243.8125L229.76407 242.48438ZM239.1547 247.5L237.4672 247.5L237.4672 240.96875L235.45157 241.59375L235.45157 240.21875L238.98282 238.95312L239.1547 238.95312L239.1547 247.5Z" fill-rule="nonzero"/><path fill="#ffffff" d="M229.76407 242.48438L230.67032 242.48438Q231.31094 242.48438 231.62344 242.17188Q231.93594 241.84375 231.93594 241.3125Q231.93594 240.79688 231.62344 240.51562Q231.32657 240.21875 230.7797 240.21875Q230.29532 240.21875 229.9672 240.48438Q229.63907 240.75 229.63907 241.17188L227.95157 241.17188Q227.95157 240.51562 228.31094 239.98438Q228.67032 239.45312 229.31094 239.15625Q229.9672 238.84375 230.74844 238.84375Q232.0922 238.84375 232.85782 239.5Q233.63907 240.14062 233.63907 241.28125Q233.63907 241.875 233.2797 242.375Q232.92032 242.85938 232.3422 243.10938Q233.06094 243.375 233.4047 243.89062Q233.76407 244.40625 233.76407 245.10938Q233.76407 246.25 232.93594 246.9375Q232.10782 247.625 230.74844 247.625Q229.4672 247.625 228.6547 246.95312Q227.8422 246.26562 227.8422 245.15625L229.5297 245.15625Q229.5297 245.64062 229.88907 245.95312Q230.26407 246.25 230.7797 246.25Q231.38907 246.25 231.73282 245.9375Q232.07657 245.60938 232.07657 245.07812Q232.07657 243.8125 230.67032 243.8125L229.76407 243.8125L229.76407 242.48438ZM239.1547 247.5L237.4672 247.5L237.4672 240.96875L235.45157 241.59375L235.45157 240.21875L238.98282 238.95312L239.1547 238.95312L239.1547 247.5Z" fill-rule="nonzero"/><path stroke="#4285f4" stroke-width="3.0" stroke-linejoin="round" stroke-linecap="round" d="M219.76428 280.5L213.92053 280.5L213.92053 279.34375L216.68616 276.39062Q217.24866 275.78125 217.51428 275.3125Q217.79553 274.84375 217.79553 274.4375Q217.79553 273.85938 217.49866 273.54688Q217.2174 273.21875 216.68616 273.21875Q216.10803 273.21875 215.7799 273.60938Q215.45178 274.0 215.45178 274.65625L213.74866 274.65625Q213.74866 273.875 214.12366 273.23438Q214.49866 272.57812 215.17053 272.21875Q215.85803 271.84375 216.7174 271.84375Q218.0299 271.84375 218.76428 272.48438Q219.49866 273.10938 219.49866 274.26562Q219.49866 274.90625 219.17053 275.5625Q218.8424 276.21875 218.04553 277.09375L216.10803 279.14062L219.76428 279.14062L219.76428 280.5ZM226.7174 272.92188L223.42053 280.5L221.63928 280.5L224.93616 273.34375L220.70178 273.34375L220.70178 271.96875L226.7174 271.96875L226.7174 272.92188Z" fill-rule="nonzero"/><path fill="#ffffff" d="M219.76428 280.5L213.92053 280.5L213.92053 279.34375L216.68616 276.39062Q217.24866 275.78125 217.51428 275.3125Q217.79553 274.84375 217.79553 274.4375Q217.79553 273.85938 217.49866 273.54688Q217.2174 273.21875 216.68616 273.21875Q216.10803 273.21875 215.7799 273.60938Q215.45178 274.0 215.45178 274.65625L213.74866 274.65625Q213.74866 273.875 214.12366 273.23438Q214.49866 272.57812 215.17053 272.21875Q215.85803 271.84375 216.7174 271.84375Q218.0299 271.84375 218.76428 272.48438Q219.49866 273.10938 219.49866 274.26562Q219.49866 274.90625 219.17053 275.5625Q218.8424 276.21875 218.04553 277.09375L216.10803 279.14062L219.76428 279.14062L219.76428 280.5ZM226.7174 272.92188L223.42053 280.5L221.63928 280.5L224.93616 273.34375L220.70178 273.34375L220.70178 271.96875L226.7174 271.96875L226.7174 272.92188Z" fill-rule="nonzero"/><path stroke="#4285f4" stroke-width="3.0" stroke-linejoin="round" stroke-linecap="round" d="M212.70187 312.5L206.85812 312.5L206.85812 311.34375L209.62375 308.39062Q210.18625 307.78125 210.45187 307.3125Q210.73312 306.84375 210.73312 306.4375Q210.73312 305.85938 210.43625 305.54688Q210.155 305.21875 209.62375 305.21875Q209.04562 305.21875 208.7175 305.60938Q208.38937 306.0 208.38937 306.65625L206.68625 306.65625Q206.68625 305.875 207.06125 305.23438Q207.43625 304.57812 208.10812 304.21875Q208.79562 303.84375 209.655 303.84375Q210.9675 303.84375 211.70187 304.48438Q212.43625 305.10938 212.43625 306.26562Q212.43625 306.90625 212.10812 307.5625Q211.78 308.21875 210.98312 309.09375L209.04562 311.14062L212.70187 311.14062L212.70187 312.5ZM214.10812 308.29688L214.60812 303.96875L219.38937 303.96875L219.38937 305.375L215.99875 305.375L215.78 307.21875Q216.38937 306.89062 217.06125 306.89062Q218.28 306.89062 218.9675 307.65625Q219.67062 308.40625 219.67062 309.76562Q219.67062 310.59375 219.31125 311.25Q218.9675 311.89062 218.31125 312.26562Q217.67062 312.625 216.78 312.625Q216.01437 312.625 215.3425 312.3125Q214.68625 311.98438 214.29562 311.42188Q213.92062 310.85938 213.88937 310.125L215.57687 310.125Q215.62375 310.65625 215.93625 310.95312Q216.26437 311.25 216.78 311.25Q217.35812 311.25 217.655 310.84375Q217.9675 310.42188 217.9675 309.67188Q217.9675 308.9375 217.60812 308.5625Q217.26437 308.17188 216.60812 308.17188Q215.99875 308.17188 215.62375 308.48438L215.4675 308.64062L214.10812 308.29688Z" fill-rule="nonzero"/><path fill="#ffffff" d="M212.70187 312.5L206.85812 312.5L206.85812 311.34375L209.62375 308.39062Q210.18625 307.78125 210.45187 307.3125Q210.73312 306.84375 210.73312 306.4375Q210.73312 305.85938 210.43625 305.54688Q210.155 305.21875 209.62375 305.21875Q209.04562 305.21875 208.7175 305.60938Q208.38937 306.0 208.38937 306.65625L206.68625 306.65625Q206.68625 305.875 207.06125 305.23438Q207.43625 304.57812 208.10812 304.21875Q208.79562 303.84375 209.655 303.84375Q210.9675 303.84375 211.70187 304.48438Q212.43625 305.10938 212.43625 306.26562Q212.43625 306.90625 212.10812 307.5625Q211.78 308.21875 210.98312 309.09375L209.04562 311.14062L212.70187 311.14062L212.70187 312.5ZM214.10812 308.29688L214.60812 303.96875L219.38937 303.96875L219.38937 305.375L215.99875 305.375L215.78 307.21875Q216.38937 306.89062 217.06125 306.89062Q218.28 306.89062 218.9675 307.65625Q219.67062 308.40625 219.67062 309.76562Q219.67062 310.59375 219.31125 311.25Q218.9675 311.89062 218.31125 312.26562Q217.67062 312.625 216.78 312.625Q216.01437 312.625 215.3425 312.3125Q214.68625 311.98438 214.29562 311.42188Q213.92062 310.85938 213.88937 310.125L215.57687 310.125Q215.62375 310.65625 215.93625 310.95312Q216.26437 311.25 216.78 311.25Q217.35812 311.25 217.655 310.84375Q217.9675 310.42188 217.9675 309.67188Q217.9675 308.9375 217.60812 308.5625Q217.26437 308.17188 216.60812 308.17188Q215.99875 308.17188 215.62375 308.48438L215.4675 308.64062L214.10812 308.29688Z" fill-rule="nonzero"/><path stroke="#4285f4" stroke-width="3.0" stroke-linejoin="round" stroke-linecap="round" d="M175.6555 344.5L173.968 344.5L173.968 337.96875L171.95238 338.59375L171.95238 337.21875L175.48363 335.95312L175.6555 335.95312L175.6555 344.5ZM178.79613 340.29688L179.29613 335.96875L184.07738 335.96875L184.07738 337.375L180.68675 337.375L180.468 339.21875Q181.07738 338.89062 181.74925 338.89062Q182.968 338.89062 183.6555 339.65625Q184.35863 340.40625 184.35863 341.76562Q184.35863 342.59375 183.99925 343.25Q183.6555 343.89062 182.99925 344.26562Q182.35863 344.625 181.468 344.625Q180.70238 344.625 180.0305 344.3125Q179.37425 343.98438 178.98363 343.42188Q178.60863 342.85938 178.57738 342.125L180.26488 342.125Q180.31175 342.65625 180.62425 342.95312Q180.95238 343.25 181.468 343.25Q182.04613 343.25 182.343 342.84375Q182.6555 342.42188 182.6555 341.67188Q182.6555 340.9375 182.29613 340.5625Q181.95238 340.17188 181.29613 340.17188Q180.68675 340.17188 180.31175 340.48438L180.1555 340.64062L178.79613 340.29688Z" fill-rule="nonzero"/><path fill="#ffffff" d="M175.6555 344.5L173.968 344.5L173.968 337.96875L171.95238 338.59375L171.95238 337.21875L175.48363 335.95312L175.6555 335.95312L175.6555 344.5ZM178.79613 340.29688L179.29613 335.96875L184.07738 335.96875L184.07738 337.375L180.68675 337.375L180.468 339.21875Q181.07738 338.89062 181.74925 338.89062Q182.968 338.89062 183.6555 339.65625Q184.35863 340.40625 184.35863 341.76562Q184.35863 342.59375 183.99925 343.25Q183.6555 343.89062 182.99925 344.26562Q182.35863 344.625 181.468 344.625Q180.70238 344.625 180.0305 344.3125Q179.37425 343.98438 178.98363 343.42188Q178.60863 342.85938 178.57738 342.125L180.26488 342.125Q180.31175 342.65625 180.62425 342.95312Q180.95238 343.25 181.468 343.25Q182.04613 343.25 182.343 342.84375Q182.6555 342.42188 182.6555 341.67188Q182.6555 340.9375 182.29613 340.5625Q181.95238 340.17188 181.29613 340.17188Q180.68675 340.17188 180.31175 340.48438L180.1555 340.64062L178.79613 340.29688Z" fill-rule="nonzero"/><path stroke="#4285f4" stroke-width="3.0" stroke-linejoin="round" stroke-linecap="round" d="M161.32768 373.09375Q160.6558 373.73438 159.7808 373.73438Q158.64018 373.73438 157.95268 372.96875Q157.2808 372.1875 157.2808 370.875Q157.2808 370.03125 157.64018 369.32812Q158.01518 368.625 158.67143 368.23438Q159.32768 367.84375 160.1558 367.84375Q160.99956 367.84375 161.6558 368.26562Q162.31206 368.6875 162.67143 369.48438Q163.0308 370.28125 163.04643 371.29688L163.04643 371.92188Q163.04643 374.0625 161.98393 375.28125Q160.92143 376.5 158.9683 376.57812L158.56206 376.57812L158.56206 375.17188L158.93706 375.15625Q161.14018 375.0625 161.32768 373.09375ZM160.18706 372.4375Q160.60893 372.4375 160.89018 372.23438Q161.18706 372.01562 161.3433 371.71875L161.3433 371.03125Q161.3433 370.17188 161.01518 369.70312Q160.68706 369.21875 160.14018 369.21875Q159.62456 369.21875 159.29643 369.6875Q158.9683 370.14062 158.9683 370.84375Q158.9683 371.54688 159.2808 372.0Q159.60893 372.4375 160.18706 372.4375Z" fill-rule="nonzero"/><path fill="#ffffff" d="M161.32768 373.09375Q160.6558 373.73438 159.7808 373.73438Q158.64018 373.73438 157.95268 372.96875Q157.2808 372.1875 157.2808 370.875Q157.2808 370.03125 157.64018 369.32812Q158.01518 368.625 158.67143 368.23438Q159.32768 367.84375 160.1558 367.84375Q160.99956 367.84375 161.6558 368.26562Q162.31206 368.6875 162.67143 369.48438Q163.0308 370.28125 163.04643 371.29688L163.04643 371.92188Q163.04643 374.0625 161.98393 375.28125Q160.92143 376.5 158.9683 376.57812L158.56206 376.57812L158.56206 375.17188L158.93706 375.15625Q161.14018 375.0625 161.32768 373.09375ZM160.18706 372.4375Q160.60893 372.4375 160.89018 372.23438Q161.18706 372.01562 161.3433 371.71875L161.3433 371.03125Q161.3433 370.17188 161.01518 369.70312Q160.68706 369.21875 160.14018 369.21875Q159.62456 369.21875 159.29643 369.6875Q158.9683 370.14062 158.9683 370.84375Q158.9683 371.54688 159.2808 372.0Q159.60893 372.4375 160.18706 372.4375Z" fill-rule="nonzero"/><path fill="#000000" d="M32.80001 266.8448L24.206263 266.8448L24.206263 263.5948Q24.206263 262.75104 24.284388 262.2979Q24.393763 261.6573 24.690638 261.2354Q24.987513 260.7979 25.518763 260.5479Q26.050013 260.2823 26.690638 260.2823Q27.784388 260.2823 28.550013 260.9854Q29.300013 261.6729 29.300013 263.50104L29.300013 265.70416L32.80001 265.70416L32.80001 266.8448ZM28.300013 265.70416L28.300013 263.4854Q28.300013 262.37604 27.893763 261.9229Q27.471888 261.45416 26.721888 261.45416Q26.190638 261.45416 25.815638 261.7354Q25.425013 262.00104 25.300013 262.43854Q25.221888 262.7354 25.221888 263.50104L25.221888 265.70416L28.300013 265.70416ZM32.80001 254.89166L31.878138 254.89166Q32.940636 255.62604 32.940636 256.87604Q32.940636 257.4229 32.73751 257.9073Q32.51876 258.37604 32.20626 258.6104Q31.878138 258.8448 31.409388 258.93854Q31.112513 259.00104 30.425013 259.00104L26.581263 259.00104L26.581263 257.93854L30.034388 257.93854Q30.846888 257.93854 31.143763 257.87604Q31.550013 257.7823 31.800013 257.4698Q32.034386 257.14166 32.034386 256.6573Q32.034386 256.18854 31.800013 255.78229Q31.550013 255.36041 31.128138 255.18854Q30.706263 255.00104 29.909388 255.00104L26.581263 255.00104L26.581263 253.95416L32.80001 253.95416L32.80001 254.89166ZM32.80001 251.00104L32.80001 251.98541L24.206263 251.98541L24.206263 250.92291L27.268763 250.92291Q26.440638 250.25104 26.440638 249.21979Q26.440638 248.64166 26.675013 248.14166Q26.893763 247.62604 27.315638 247.29791Q27.737513 246.95416 28.331263 246.76666Q28.925013 246.57916 29.596888 246.57916Q31.190638 246.57916 32.065636 247.37604Q32.940636 248.17291 32.940636 249.26666Q32.940636 250.37604 32.01876 251.00104L32.80001 251.00104ZM29.643763 251.01666Q30.753138 251.01666 31.253138 250.70416Q32.065636 250.20416 32.065636 249.36041Q32.065636 248.67291 31.471888 248.17291Q30.878138 247.65729 29.675013 247.65729Q28.456263 247.65729 27.878138 248.14166Q27.300013 248.62604 27.300013 249.31354Q27.300013 250.00104 27.909388 250.51666Q28.503138 251.01666 29.643763 251.01666ZM32.80001 245.00104L24.206263 245.00104L24.206263 243.93854L32.80001 243.93854L32.80001 245.00104ZM25.425013 241.96979L24.206263 241.96979L24.206263 240.90729L25.425013 240.90729L25.425013 241.96979ZM32.80001 241.96979L26.581263 241.96979L26.581263 240.90729L32.80001 240.90729L32.80001 241.96979ZM30.518763 234.90729L30.659388 233.87604Q31.721888 234.04791 32.33126 234.75104Q32.940636 235.45416 32.940636 236.46979Q32.940636 237.75104 32.11251 238.53229Q31.268763 239.29791 29.706263 239.29791Q28.706263 239.29791 27.956263 238.96979Q27.190638 238.62604 26.815638 237.95416Q26.440638 237.26666 26.440638 236.45416Q26.440638 235.45416 26.956263 234.81354Q27.456263 234.15729 28.409388 233.96979L28.565638 235.00104Q27.940638 235.14166 27.628138 235.51666Q27.300013 235.89166 27.300013 236.42291Q27.300013 237.21979 27.878138 237.71979Q28.440638 238.21979 29.675013 238.21979Q30.940638 238.21979 31.503138 237.73541Q32.065636 237.25104 32.065636 236.48541Q32.065636 235.86041 31.690638 235.45416Q31.315638 235.03229 30.518763 234.90729ZM32.034386 228.90729Q32.534386 229.50104 32.73751 230.04791Q32.940636 230.57916 32.940636 231.20416Q32.940636 232.23541 32.440636 232.78229Q31.940638 233.32916 31.159388 233.32916Q30.706263 233.32916 30.331263 233.12604Q29.940638 232.92291 29.721888 232.57916Q29.487513 232.23541 29.378138 231.81354Q29.284388 231.51666 29.206263 230.87604Q29.065638 229.61041 28.846888 229.00104Q28.628138 229.00104 28.581263 229.00104Q27.925013 229.00104 27.659388 229.29791Q27.315638 229.70416 27.315638 230.50104Q27.315638 231.23541 27.581263 231.59479Q27.831263 231.95416 28.487513 232.12604L28.346888 233.15729Q27.690638 233.01666 27.284388 232.68854Q26.878138 232.36041 26.659388 231.75104Q26.440638 231.14166 26.440638 230.34479Q26.440638 229.54791 26.628138 229.04791Q26.815638 228.54791 27.096888 228.31354Q27.378138 228.07916 27.815638 227.98541Q28.081263 227.93854 28.784388 227.93854L30.190638 227.93854Q31.659388 227.93854 32.05001 227.87604Q32.440636 227.79791 32.80001 227.59479L32.80001 228.70416Q32.471886 228.86041 32.034386 228.90729ZM29.675013 229.00104Q29.909388 229.57916 30.081263 230.71979Q30.175013 231.37604 30.300013 231.64166Q30.409388 231.90729 30.628138 232.06354Q30.846888 232.20416 31.128138 232.20416Q31.550013 232.20416 31.831263 231.89166Q32.11251 231.56354 32.11251 230.95416Q32.11251 230.34479 31.846888 229.87604Q31.581263 229.39166 31.112513 229.17291Q30.753138 229.00104 30.065638 229.00104L29.675013 229.00104ZM31.862513 223.67291L32.784386 223.51666Q32.878136 223.96979 32.878136 224.31354Q32.878136 224.89166 32.70626 225.20416Q32.51876 225.51666 32.221886 225.65729Q31.925013 225.78229 30.971888 225.78229L27.393763 225.78229L27.393763 226.54791L26.581263 226.54791L26.581263 225.78229L25.034388 225.78229L24.409388 224.73541L26.581263 224.73541L26.581263 223.67291L27.393763 223.67291L27.393763 224.73541L31.034388 224.73541Q31.487513 224.73541 31.612513 224.68854Q31.737513 224.62604 31.815638 224.50104Q31.893763 224.37604 31.893763 224.14166Q31.893763 223.95416 31.862513 223.67291ZM25.425013 222.96979L24.206263 222.96979L24.206263 221.90729L25.425013 221.90729L25.425013 222.96979ZM32.80001 222.96979L26.581263 222.96979L26.581263 221.90729L32.80001 221.90729L32.80001 222.96979ZM29.690638 220.36041Q27.956263 220.36041 27.128138 219.40729Q26.440638 218.61041 26.440638 217.45416Q26.440638 216.17291 27.284388 215.36041Q28.112513 214.53229 29.596888 214.53229Q30.800013 214.53229 31.487513 214.89166Q32.17501 215.25104 32.565636 215.95416Q32.940636 216.64166 32.940636 217.45416Q32.940636 218.75104 32.11251 219.56354Q31.268763 220.36041 29.690638 220.36041ZM29.690638 219.28229Q30.878138 219.28229 31.471888 218.76666Q32.065636 218.23541 32.065636 217.45416Q32.065636 216.65729 31.471888 216.14166Q30.878138 215.62604 29.659388 215.62604Q28.503138 215.62604 27.909388 216.15729Q27.315638 216.67291 27.315638 217.45416Q27.315638 218.23541 27.909388 218.76666Q28.487513 219.28229 29.690638 219.28229ZM32.80001 212.96979L26.581263 212.96979L26.581263 212.03229L27.456263 212.03229Q26.440638 211.34479 26.440638 210.04791Q26.440638 209.48541 26.643763 209.01666Q26.846888 208.53229 27.175013 208.29791Q27.503138 208.06354 27.940638 207.96979Q28.237513 207.92291 28.971888 207.92291L32.80001 207.92291L32.80001 208.96979L29.018763 208.96979Q28.362513 208.96979 28.050013 209.09479Q27.737513 209.21979 27.550013 209.53229Q27.346888 209.84479 27.346888 210.26666Q27.346888 210.93854 27.784388 211.43854Q28.206263 211.92291 29.393763 211.92291L32.80001 211.92291L32.80001 212.96979Z" fill-rule="nonzero"/><path fill="#000000" d="M116.8625 83.09162L117.9875 83.3885Q117.62813 84.77912 116.70625 85.5135Q115.78438 86.24787 114.44063 86.24787Q113.05 86.24787 112.175 85.68537Q111.3 85.12287 110.84688 84.06037Q110.39375 82.98225 110.39375 81.74787Q110.39375 80.40412 110.90938 79.40412Q111.425 78.40412 112.3625 77.8885Q113.31563 77.37287 114.45625 77.37287Q115.7375 77.37287 116.6125 78.02912Q117.50313 78.68537 117.84688 79.87287L116.72188 80.1385Q116.425 79.201 115.84688 78.77912Q115.28438 78.34162 114.425 78.34162Q113.44063 78.34162 112.76875 78.826Q112.1125 79.29475 111.83125 80.09162Q111.56563 80.8885 111.56563 81.74787Q111.56563 82.84162 111.87813 83.65412Q112.20625 84.46662 112.87813 84.87287Q113.55 85.27912 114.34688 85.27912Q115.3 85.27912 115.95625 84.73225Q116.62813 84.18537 116.8625 83.09162ZM119.76875 86.10725L119.76875 77.5135L120.89375 77.5135L120.89375 81.04475L125.3625 81.04475L125.3625 77.5135L126.50313 77.5135L126.50313 86.10725L125.3625 86.10725L125.3625 82.06037L120.89375 82.06037L120.89375 86.10725L119.76875 86.10725ZM128.925 86.10725L128.925 77.5135L130.05 77.5135L130.05 86.10725L128.925 86.10725Z" fill-rule="nonzero"/><path fill="#000000" d="M85.925 118.3649L85.925 109.77115L87.05 109.77115L87.05 118.3649L85.925 118.3649ZM88.75313 118.3649L88.75313 109.77115L94.95625 109.77115L94.95625 110.78677L89.89375 110.78677L89.89375 113.41177L94.64375 113.41177L94.64375 114.4274L89.89375 114.4274L89.89375 117.34927L95.15938 117.34927L95.15938 118.3649L88.75313 118.3649ZM96.75313 118.3649L96.75313 109.77115L102.95625 109.77115L102.95625 110.78677L97.89375 110.78677L97.89375 113.41177L102.64375 113.41177L102.64375 114.4274L97.89375 114.4274L97.89375 117.34927L103.15938 117.34927L103.15938 118.3649L96.75313 118.3649ZM104.75313 118.3649L104.75313 109.77115L110.95625 109.77115L110.95625 110.78677L105.89375 110.78677L105.89375 113.41177L110.64375 113.41177L110.64375 114.4274L105.89375 114.4274L105.89375 117.34927L111.15938 117.34927L111.15938 118.3649L104.75313 118.3649ZM118.175 118.3649L114.84688 109.77115L116.08125 109.77115L118.31563 116.02115Q118.58125 116.77115 118.76875 117.4274Q118.97188 116.72427 119.2375 116.02115L121.55 109.77115L122.70625 109.77115L119.34688 118.3649L118.175 118.3649ZM122.7375 118.3649L122.7375 109.77115L126.55 109.77115Q127.70625 109.77115 128.3 110.00552Q128.89375 110.2399 129.25313 110.83365Q129.6125 111.41177 129.6125 112.1149Q129.6125 113.03677 129.01875 113.66177Q128.425 114.28677 127.19063 114.45865Q127.64375 114.6774 127.87813 114.88052Q128.37813 115.33365 128.81563 116.02115L130.31563 118.3649L128.87813 118.3649L127.75313 116.58365Q127.25313 115.8024 126.925 115.39615Q126.6125 114.9899 126.34688 114.83365Q126.09688 114.66177 125.83125 114.58365Q125.64375 114.5524 125.20625 114.5524L123.87813 114.5524L123.87813 118.3649L122.7375 118.3649ZM123.87813 113.56802L126.33125 113.56802Q127.09688 113.56802 127.53438 113.41177Q127.9875 113.2399 128.20625 112.89615Q128.44063 112.53677 128.44063 112.1149Q128.44063 111.50552 127.9875 111.1149Q127.55 110.72427 126.59688 110.72427L123.87813 110.72427L123.87813 113.56802Z" fill-rule="nonzero"/><path fill="#000000" d="M95.925 150.62254L95.925 142.0288L97.05 142.0288L97.05 150.62254L95.925 150.62254ZM98.34688 147.85692L99.40938 147.76317Q99.4875 148.41942 99.76875 148.82567Q100.05 149.23192 100.62813 149.49754Q101.22188 149.74754 101.95625 149.74754Q102.59688 149.74754 103.09688 149.56004Q103.59688 149.35692 103.83125 149.0288Q104.08125 148.68504 104.08125 148.29442Q104.08125 147.88817 103.84688 147.5913Q103.6125 147.2788 103.08125 147.07567Q102.72188 146.93504 101.53438 146.6538Q100.3625 146.37254 99.89375 146.12254Q99.26875 145.79442 98.97188 145.32567Q98.675 144.8413 98.675 144.24754Q98.675 143.60692 99.03438 143.04442Q99.40938 142.4663 100.1125 142.18504Q100.83125 141.88817 101.69063 141.88817Q102.64375 141.88817 103.37813 142.20067Q104.1125 142.49754 104.50313 143.10692Q104.89375 143.70067 104.925 144.45067L103.83125 144.5288Q103.7375 143.7163 103.22188 143.31004Q102.72188 142.88817 101.7375 142.88817Q100.70625 142.88817 100.2375 143.26317Q99.76875 143.63817 99.76875 144.16942Q99.76875 144.63817 100.09688 144.93504Q100.425 145.23192 101.8 145.54442Q103.19063 145.85692 103.70625 146.0913Q104.45625 146.45067 104.81563 146.98192Q105.175 147.49754 105.175 148.20067Q105.175 148.88817 104.78438 149.49754Q104.39375 150.0913 103.65938 150.43504Q102.925 150.76317 102.00313 150.76317Q100.83125 150.76317 100.03438 150.43504Q99.25313 150.0913 98.8 149.4038Q98.3625 148.7163 98.34688 147.85692ZM106.69063 150.62254L106.69063 142.0288L108.40938 142.0288L110.44063 148.10692Q110.72188 148.9663 110.84688 149.38817Q110.9875 148.91942 111.3 148.01317L113.3625 142.0288L114.89375 142.0288L114.89375 150.62254L113.8 150.62254L113.8 143.43504L111.3 150.62254L110.26875 150.62254L107.78438 143.31004L107.78438 150.62254L106.69063 150.62254ZM114.78438 150.62254L118.08125 142.0288L119.3 142.0288L122.81563 150.62254L121.53438 150.62254L120.51875 148.01317L116.94063 148.01317L115.9875 150.62254L114.78438 150.62254ZM117.26875 147.0913L120.175 147.0913L119.28438 144.7163Q118.8625 143.63817 118.675 142.93504Q118.50313 143.76317 118.20625 144.57567L117.26875 147.0913ZM122.7375 150.62254L122.7375 142.0288L126.55 142.0288Q127.70625 142.0288 128.3 142.26317Q128.89375 142.49754 129.25313 143.0913Q129.6125 143.66942 129.6125 144.37254Q129.6125 145.29442 129.01875 145.91942Q128.425 146.54442 127.19063 146.7163Q127.64375 146.93504 127.87813 147.13817Q128.37813 147.5913 128.81563 148.2788L130.31563 150.62254L128.87813 150.62254L127.75313 148.8413Q127.25313 148.06004 126.925 147.6538Q126.6125 147.24754 126.34688 147.0913Q126.09688 146.91942 125.83125 146.8413Q125.64375 146.81004 125.20625 146.81004L123.87813 146.81004L123.87813 150.62254L122.7375 150.62254ZM123.87813 145.82567L126.33125 145.82567Q127.09688 145.82567 127.53438 145.66942Q127.9875 145.49754 128.20625 145.1538Q128.44063 144.79442 128.44063 144.37254Q128.44063 143.76317 127.9875 143.37254Q127.55 142.98192 126.59688 142.98192L123.87813 142.98192L123.87813 145.82567Z" fill-rule="nonzero"/><path fill="#000000" d="M103.175 182.88019L99.84688 174.28644L101.08125 174.28644L103.31563 180.53644Q103.58125 181.28644 103.76875 181.94269Q103.97188 181.23956 104.2375 180.53644L106.55 174.28644L107.70625 174.28644L104.34688 182.88019L103.175 182.88019ZM107.7375 182.88019L107.7375 174.28644L111.55 174.28644Q112.70625 174.28644 113.3 174.52081Q113.89375 174.75519 114.25313 175.34894Q114.6125 175.92706 114.6125 176.63019Q114.6125 177.55206 114.01875 178.17706Q113.425 178.80206 112.19063 178.97394Q112.64375 179.19269 112.87813 179.39581Q113.37813 179.84894 113.81563 180.53644L115.31563 182.88019L113.87813 182.88019L112.75313 181.09894Q112.25313 180.31769 111.925 179.91144Q111.6125 179.50519 111.34688 179.34894Q111.09688 179.17706 110.83125 179.09894Q110.64375 179.06769 110.20625 179.06769L108.87813 179.06769L108.87813 182.88019L107.7375 182.88019ZM108.87813 178.08331L111.33125 178.08331Q112.09688 178.08331 112.53438 177.92706Q112.9875 177.75519 113.20625 177.41144Q113.44063 177.05206 113.44063 176.63019Q113.44063 176.02081 112.9875 175.63019Q112.55 175.23956 111.59688 175.23956L108.87813 175.23956L108.87813 178.08331ZM116.34688 180.11456L117.40938 180.02081Q117.4875 180.67706 117.76875 181.08331Q118.05 181.48956 118.62813 181.75519Q119.22188 182.00519 119.95625 182.00519Q120.59688 182.00519 121.09688 181.81769Q121.59688 181.61456 121.83125 181.28644Q122.08125 180.94269 122.08125 180.55206Q122.08125 180.14581 121.84688 179.84894Q121.6125 179.53644 121.08125 179.33331Q120.72188 179.19269 119.53438 178.91144Q118.3625 178.63019 117.89375 178.38019Q117.26875 178.05206 116.97188 177.58331Q116.675 177.09894 116.675 176.50519Q116.675 175.86456 117.03438 175.30206Q117.40938 174.72394 118.1125 174.44269Q118.83125 174.14581 119.69063 174.14581Q120.64375 174.14581 121.37813 174.45831Q122.1125 174.75519 122.50313 175.36456Q122.89375 175.95831 122.925 176.70831L121.83125 176.78644Q121.7375 175.97394 121.22188 175.56769Q120.72188 175.14581 119.7375 175.14581Q118.70625 175.14581 118.2375 175.52081Q117.76875 175.89581 117.76875 176.42706Q117.76875 176.89581 118.09688 177.19269Q118.425 177.48956 119.8 177.80206Q121.19063 178.11456 121.70625 178.34894Q122.45625 178.70831 122.81563 179.23956Q123.175 179.75519 123.175 180.45831Q123.175 181.14581 122.78438 181.75519Q122.39375 182.34894 121.65938 182.69269Q120.925 183.02081 120.00313 183.02081Q118.83125 183.02081 118.03438 182.69269Q117.25313 182.34894 116.8 181.66144Q116.3625 180.97394 116.34688 180.11456ZM126.90938 182.88019L126.90938 175.30206L124.08125 175.30206L124.08125 174.28644L130.89375 174.28644L130.89375 175.30206L128.05 175.30206L128.05 182.88019L126.90938 182.88019Z" fill-rule="nonzero"/><path fill="#000000" d="M100.8625 212.12222L101.9875 212.4191Q101.62813 213.80972 100.70625 214.5441Q99.78438 215.27847 98.44063 215.27847Q97.05 215.27847 96.175 214.71597Q95.3 214.15347 94.84688 213.09097Q94.39375 212.01285 94.39375 210.77847Q94.39375 209.43472 94.90938 208.43472Q95.425 207.43472 96.3625 206.9191Q97.31563 206.40347 98.45625 206.40347Q99.7375 206.40347 100.6125 207.05972Q101.50313 207.71597 101.84688 208.90347L100.72188 209.1691Q100.425 208.2316 99.84688 207.80972Q99.28438 207.37222 98.425 207.37222Q97.44063 207.37222 96.76875 207.8566Q96.1125 208.32535 95.83125 209.12222Q95.56563 209.9191 95.56563 210.77847Q95.56563 211.87222 95.87813 212.68472Q96.20625 213.49722 96.87813 213.90347Q97.55 214.30972 98.34688 214.30972Q99.3 214.30972 99.95625 213.76285Q100.62813 213.21597 100.8625 212.12222ZM103.34688 212.37222L104.40938 212.27847Q104.4875 212.93472 104.76875 213.34097Q105.05 213.74722 105.62813 214.01285Q106.22188 214.26285 106.95625 214.26285Q107.59688 214.26285 108.09688 214.07535Q108.59688 213.87222 108.83125 213.5441Q109.08125 213.20035 109.08125 212.80972Q109.08125 212.40347 108.84688 212.1066Q108.6125 211.7941 108.08125 211.59097Q107.72188 211.45035 106.53438 211.1691Q105.3625 210.88785 104.89375 210.63785Q104.26875 210.30972 103.97188 209.84097Q103.675 209.3566 103.675 208.76285Q103.675 208.12222 104.03438 207.55972Q104.40938 206.9816 105.1125 206.70035Q105.83125 206.40347 106.69063 206.40347Q107.64375 206.40347 108.37813 206.71597Q109.1125 207.01285 109.50313 207.62222Q109.89375 208.21597 109.925 208.96597L108.83125 209.0441Q108.7375 208.2316 108.22188 207.82535Q107.72188 207.40347 106.7375 207.40347Q105.70625 207.40347 105.2375 207.77847Q104.76875 208.15347 104.76875 208.68472Q104.76875 209.15347 105.09688 209.45035Q105.425 209.74722 106.8 210.05972Q108.19063 210.37222 108.70625 210.6066Q109.45625 210.96597 109.81563 211.49722Q110.175 212.01285 110.175 212.71597Q110.175 213.40347 109.78438 214.01285Q109.39375 214.6066 108.65938 214.95035Q107.925 215.27847 107.00313 215.27847Q105.83125 215.27847 105.03438 214.95035Q104.25313 214.6066 103.8 213.9191Q103.3625 213.2316 103.34688 212.37222ZM117.8625 212.12222L118.9875 212.4191Q118.62813 213.80972 117.70625 214.5441Q116.78438 215.27847 115.44063 215.27847Q114.05 215.27847 113.175 214.71597Q112.3 214.15347 111.84688 213.09097Q111.39375 212.01285 111.39375 210.77847Q111.39375 209.43472 111.90938 208.43472Q112.425 207.43472 113.3625 206.9191Q114.31563 206.40347 115.45625 206.40347Q116.7375 206.40347 117.6125 207.05972Q118.50313 207.71597 118.84688 208.90347L117.72188 209.1691Q117.425 208.2316 116.84688 207.80972Q116.28438 207.37222 115.425 207.37222Q114.44063 207.37222 113.76875 207.8566Q113.1125 208.32535 112.83125 209.12222Q112.56563 209.9191 112.56563 210.77847Q112.56563 211.87222 112.87813 212.68472Q113.20625 213.49722 113.87813 213.90347Q114.55 214.30972 115.34688 214.30972Q116.3 214.30972 116.95625 213.76285Q117.62813 213.21597 117.8625 212.12222ZM122.22188 215.13785L119.94063 206.5441L121.1125 206.5441L122.425 212.18472Q122.62813 213.05972 122.78438 213.93472Q123.1125 212.55972 123.175 212.34097L124.8 206.5441L126.175 206.5441L127.40938 210.88785Q127.8625 212.51285 128.08125 213.93472Q128.2375 213.12222 128.50313 212.05972L129.84688 206.5441L130.9875 206.5441L128.64375 215.13785L127.53438 215.13785L125.7375 208.59097Q125.50313 207.77847 125.45625 207.59097Q125.33125 208.1691 125.20625 208.59097L123.39375 215.13785L122.22188 215.13785Z" fill-rule="nonzero"/><path fill="#000000" d="M69.34688 244.62987L70.40938 244.53612Q70.4875 245.19237 70.76875 245.59862Q71.05 246.00487 71.62813 246.2705Q72.22188 246.5205 72.95625 246.5205Q73.59688 246.5205 74.09688 246.333Q74.59688 246.12987 74.83125 245.80174Q75.08125 245.458 75.08125 245.06737Q75.08125 244.66112 74.84688 244.36424Q74.6125 244.05174 74.08125 243.84862Q73.72188 243.708 72.53438 243.42674Q71.3625 243.1455 70.89375 242.8955Q70.26875 242.56737 69.97188 242.09862Q69.675 241.61424 69.675 241.0205Q69.675 240.37987 70.03438 239.81737Q70.40938 239.23924 71.1125 238.958Q71.83125 238.66112 72.69063 238.66112Q73.64375 238.66112 74.37813 238.97362Q75.1125 239.2705 75.50313 239.87987Q75.89375 240.47362 75.925 241.22362L74.83125 241.30174Q74.7375 240.48924 74.22188 240.083Q73.72188 239.66112 72.7375 239.66112Q71.70625 239.66112 71.2375 240.03612Q70.76875 240.41112 70.76875 240.94237Q70.76875 241.41112 71.09688 241.708Q71.425 242.00487 72.8 242.31737Q74.19063 242.62987 74.70625 242.86424Q75.45625 243.22362 75.81563 243.75487Q76.175 244.2705 76.175 244.97362Q76.175 245.66112 75.78438 246.2705Q75.39375 246.86424 74.65938 247.208Q73.925 247.53612 73.00313 247.53612Q71.83125 247.53612 71.03438 247.208Q70.25313 246.86424 69.8 246.17674Q69.3625 245.48924 69.34688 244.62987ZM77.925 247.3955L77.925 238.80174L79.05 238.80174L79.05 247.3955L77.925 247.3955ZM84.75313 244.0205L84.75313 243.0205L88.37813 243.00487L88.37813 246.19237Q87.55 246.86424 86.65938 247.208Q85.76875 247.53612 84.83125 247.53612Q83.56563 247.53612 82.51875 247.00487Q81.4875 246.458 80.95625 245.44237Q80.44063 244.41112 80.44063 243.1455Q80.44063 241.87987 80.95625 240.80174Q81.4875 239.708 82.47188 239.19237Q83.45625 238.66112 84.7375 238.66112Q85.675 238.66112 86.425 238.958Q87.175 239.25487 87.59688 239.80174Q88.03438 240.333 88.25313 241.208L87.2375 241.48924Q87.03438 240.833 86.7375 240.458Q86.45625 240.083 85.925 239.86424Q85.39375 239.62987 84.75313 239.62987Q83.97188 239.62987 83.39375 239.86424Q82.83125 240.09862 82.47188 240.48924Q82.12813 240.87987 81.94063 241.34862Q81.6125 242.1455 81.6125 243.06737Q81.6125 244.22362 82.00313 245.00487Q82.40938 245.7705 83.15938 246.1455Q83.90938 246.5205 84.76875 246.5205Q85.50313 246.5205 86.20625 246.23924Q86.90938 245.94237 87.26875 245.62987L87.26875 244.0205L84.75313 244.0205ZM93.75313 244.0205L93.75313 243.0205L97.37813 243.00487L97.37813 246.19237Q96.55 246.86424 95.65938 247.208Q94.76875 247.53612 93.83125 247.53612Q92.56563 247.53612 91.51875 247.00487Q90.4875 246.458 89.95625 245.44237Q89.44063 244.41112 89.44063 243.1455Q89.44063 241.87987 89.95625 240.80174Q90.4875 239.708 91.47188 239.19237Q92.45625 238.66112 93.7375 238.66112Q94.675 238.66112 95.425 238.958Q96.175 239.25487 96.59688 239.80174Q97.03438 240.333 97.25313 241.208L96.2375 241.48924Q96.03438 240.833 95.7375 240.458Q95.45625 240.083 94.925 239.86424Q94.39375 239.62987 93.75313 239.62987Q92.97188 239.62987 92.39375 239.86424Q91.83125 240.09862 91.47188 240.48924Q91.12813 240.87987 90.94063 241.34862Q90.6125 242.1455 90.6125 243.06737Q90.6125 244.22362 91.00313 245.00487Q91.40938 245.7705 92.15938 246.1455Q92.90938 246.5205 93.76875 246.5205Q94.50313 246.5205 95.20625 246.23924Q95.90938 245.94237 96.26875 245.62987L96.26875 244.0205L93.75313 244.0205ZM98.7375 247.3955L98.7375 238.80174L102.55 238.80174Q103.70625 238.80174 104.3 239.03612Q104.89375 239.2705 105.25313 239.86424Q105.6125 240.44237 105.6125 241.1455Q105.6125 242.06737 105.01875 242.69237Q104.425 243.31737 103.19063 243.48924Q103.64375 243.708 103.87813 243.91112Q104.37813 244.36424 104.81563 245.05174L106.31563 247.3955L104.87813 247.3955L103.75313 245.61424Q103.25313 244.833 102.925 244.42674Q102.6125 244.0205 102.34688 243.86424Q102.09688 243.69237 101.83125 243.61424Q101.64375 243.583 101.20625 243.583L99.87813 243.583L99.87813 247.3955L98.7375 247.3955ZM99.87813 242.59862L102.33125 242.59862Q103.09688 242.59862 103.53438 242.44237Q103.9875 242.2705 104.20625 241.92674Q104.44063 241.56737 104.44063 241.1455Q104.44063 240.53612 103.9875 240.1455Q103.55 239.75487 102.59688 239.75487L99.87813 239.75487L99.87813 242.59862ZM106.78438 247.3955L110.08125 238.80174L111.3 238.80174L114.81563 247.3955L113.53438 247.3955L112.51875 244.78612L108.94063 244.78612L107.9875 247.3955L106.78438 247.3955ZM109.26875 243.86424L112.175 243.86424L111.28438 241.48924Q110.8625 240.41112 110.675 239.708Q110.50313 240.53612 110.20625 241.34862L109.26875 243.86424ZM114.72188 247.3955L114.72188 238.80174L117.97188 238.80174Q118.81563 238.80174 119.26875 238.87987Q119.90938 238.98924 120.33125 239.28612Q120.76875 239.583 121.01875 240.11424Q121.28438 240.6455 121.28438 241.28612Q121.28438 242.37987 120.58125 243.1455Q119.89375 243.8955 118.06563 243.8955L115.8625 243.8955L115.8625 247.3955L114.72188 247.3955ZM115.8625 242.8955L118.08125 242.8955Q119.19063 242.8955 119.64375 242.48924Q120.1125 242.06737 120.1125 241.31737Q120.1125 240.78612 119.83125 240.41112Q119.56563 240.0205 119.12813 239.8955Q118.83125 239.81737 118.06563 239.81737L115.8625 239.81737L115.8625 242.8955ZM122.76875 247.3955L122.76875 238.80174L123.89375 238.80174L123.89375 242.333L128.3625 242.333L128.3625 238.80174L129.50313 238.80174L129.50313 247.3955L128.3625 247.3955L128.3625 243.34862L123.89375 243.34862L123.89375 247.3955L122.76875 247.3955Z" fill-rule="nonzero"/><path fill="#000000" d="M110.3625 271.0594L111.50313 271.0594L111.50313 276.02814Q111.50313 277.325 111.20625 278.09064Q110.90938 278.84064 110.14375 279.325Q109.37813 279.79376 108.14375 279.79376Q106.94063 279.79376 106.15938 279.3875Q105.39375 278.96564 105.06563 278.1844Q104.7375 277.3875 104.7375 276.02814L104.7375 271.0594L105.87813 271.0594L105.87813 276.0125Q105.87813 277.1375 106.08125 277.66876Q106.3 278.2 106.8 278.4969Q107.31563 278.77814 108.05 278.77814Q109.3 278.77814 109.83125 278.21564Q110.3625 277.6375 110.3625 276.0125L110.3625 271.0594ZM113.925 279.65314L113.925 271.0594L115.05 271.0594L115.05 279.65314L113.925 279.65314ZM116.34688 276.8875L117.40938 276.79376Q117.4875 277.45 117.76875 277.85626Q118.05 278.2625 118.62813 278.52814Q119.22188 278.77814 119.95625 278.77814Q120.59688 278.77814 121.09688 278.59064Q121.59688 278.3875 121.83125 278.0594Q122.08125 277.71564 122.08125 277.325Q122.08125 276.91876 121.84688 276.6219Q121.6125 276.3094 121.08125 276.10626Q120.72188 275.96564 119.53438 275.6844Q118.3625 275.40314 117.89375 275.15314Q117.26875 274.825 116.97188 274.35626Q116.675 273.8719 116.675 273.27814Q116.675 272.6375 117.03438 272.075Q117.40938 271.4969 118.1125 271.21564Q118.83125 270.91876 119.69063 270.91876Q120.64375 270.91876 121.37813 271.23126Q122.1125 271.52814 122.50313 272.1375Q122.89375 272.73126 122.925 273.48126L121.83125 273.5594Q121.7375 272.7469 121.22188 272.34064Q120.72188 271.91876 119.7375 271.91876Q118.70625 271.91876 118.2375 272.29376Q117.76875 272.66876 117.76875 273.2Q117.76875 273.66876 118.09688 273.96564Q118.425 274.2625 119.8 274.575Q121.19063 274.8875 121.70625 275.1219Q122.45625 275.48126 122.81563 276.0125Q123.175 276.52814 123.175 277.23126Q123.175 277.91876 122.78438 278.52814Q122.39375 279.1219 121.65938 279.46564Q120.925 279.79376 120.00313 279.79376Q118.83125 279.79376 118.03438 279.46564Q117.25313 279.1219 116.8 278.4344Q116.3625 277.7469 116.34688 276.8875ZM126.90938 279.65314L126.90938 272.075L124.08125 272.075L124.08125 271.0594L130.89375 271.0594L130.89375 272.075L128.05 272.075L128.05 279.65314L126.90938 279.65314Z" fill-rule="nonzero"/><path fill="#000000" d="M101.90938 311.9108L101.90938 304.33267L99.08125 304.33267L99.08125 303.31705L105.89375 303.31705L105.89375 304.33267L103.05 304.33267L103.05 311.9108L101.90938 311.9108ZM109.175 311.9108L105.84688 303.31705L107.08125 303.31705L109.31563 309.56705Q109.58125 310.31705 109.76875 310.9733Q109.97188 310.27017 110.2375 309.56705L112.55 303.31705L113.70625 303.31705L110.34688 311.9108L109.175 311.9108ZM119.8625 308.89517L120.9875 309.19205Q120.62813 310.58267 119.70625 311.31705Q118.78438 312.05142 117.44063 312.05142Q116.05 312.05142 115.175 311.48892Q114.3 310.92642 113.84688 309.86392Q113.39375 308.7858 113.39375 307.55142Q113.39375 306.20767 113.90938 305.20767Q114.425 304.20767 115.3625 303.69205Q116.31563 303.17642 117.45625 303.17642Q118.7375 303.17642 119.6125 303.83267Q120.50313 304.48892 120.84688 305.67642L119.72188 305.94205Q119.425 305.00455 118.84688 304.58267Q118.28438 304.14517 117.425 304.14517Q116.44063 304.14517 115.76875 304.62955Q115.1125 305.0983 114.83125 305.89517Q114.56563 306.69205 114.56563 307.55142Q114.56563 308.64517 114.87813 309.45767Q115.20625 310.27017 115.87813 310.67642Q116.55 311.08267 117.34688 311.08267Q118.3 311.08267 118.95625 310.5358Q119.62813 309.98892 119.8625 308.89517ZM126.75313 308.5358L126.75313 307.5358L130.37813 307.52017L130.37813 310.70767Q129.55 311.37955 128.65938 311.7233Q127.76875 312.05142 126.83125 312.05142Q125.56563 312.05142 124.51875 311.52017Q123.4875 310.9733 122.95625 309.95767Q122.44063 308.92642 122.44063 307.6608Q122.44063 306.39517 122.95625 305.31705Q123.4875 304.2233 124.47188 303.70767Q125.45625 303.17642 126.7375 303.17642Q127.675 303.17642 128.425 303.4733Q129.175 303.77017 129.59688 304.31705Q130.03438 304.8483 130.25313 305.7233L129.2375 306.00455Q129.03438 305.3483 128.7375 304.9733Q128.45625 304.5983 127.925 304.37955Q127.39375 304.14517 126.75313 304.14517Q125.97188 304.14517 125.39375 304.37955Q124.83125 304.61392 124.47188 305.00455Q124.12813 305.39517 123.94063 305.86392Q123.6125 306.6608 123.6125 307.58267Q123.6125 308.73892 124.00313 309.52017Q124.40938 310.2858 125.15938 310.6608Q125.90938 311.0358 126.76875 311.0358Q127.50313 311.0358 128.20625 310.75455Q128.90938 310.45767 129.26875 310.14517L129.26875 308.5358L126.75313 308.5358Z" fill-rule="nonzero"/><path fill="#000000" d="M114.78438 344.16843L118.08125 335.57468L119.3 335.57468L122.81563 344.16843L121.53438 344.16843L120.51875 341.55905L116.94063 341.55905L115.9875 344.16843L114.78438 344.16843ZM117.26875 340.63718L120.175 340.63718L119.28438 338.26218Q118.8625 337.18405 118.675 336.48093Q118.50313 337.30905 118.20625 338.12155L117.26875 340.63718ZM122.76875 344.16843L122.76875 335.57468L123.89375 335.57468L123.89375 339.10593L128.3625 339.10593L128.3625 335.57468L129.50313 335.57468L129.50313 344.16843L128.3625 344.16843L128.3625 340.12155L123.89375 340.12155L123.89375 344.16843L122.76875 344.16843Z" fill-rule="nonzero"/><path fill="#000000" d="M54.784374 376.4261L54.784374 367.83234L60.58125 367.83234L60.58125 368.84796L55.925 368.84796L55.925 371.5042L59.95625 371.5042L59.95625 372.51984L55.925 372.51984L55.925 376.4261L54.784374 376.4261ZM61.58125 376.4261L61.58125 370.20734L62.534374 370.20734L62.534374 371.14484Q62.89375 370.4886 63.190624 370.28546Q63.503124 370.0667 63.878124 370.0667Q64.40938 370.0667 64.95625 370.39484L64.59688 371.3792Q64.20625 371.14484 63.83125 371.14484Q63.471874 371.14484 63.190624 371.3636Q62.925 371.5667 62.815624 371.9417Q62.628124 372.5042 62.628124 373.16046L62.628124 376.4261L61.58125 376.4261ZM65.20625 373.3167Q65.20625 371.58234 66.15938 370.7542Q66.95625 370.0667 68.1125 370.0667Q69.39375 370.0667 70.20625 370.91046Q71.03438 371.7386 71.03438 373.22296Q71.03438 374.4261 70.675 375.1136Q70.31563 375.8011 69.6125 376.1917Q68.925 376.5667 68.1125 376.5667Q66.81563 376.5667 66.00313 375.7386Q65.20625 374.89484 65.20625 373.3167ZM66.28438 373.3167Q66.28438 374.5042 66.8 375.09796Q67.33125 375.6917 68.1125 375.6917Q68.90938 375.6917 69.425 375.09796Q69.94063 374.5042 69.94063 373.28546Q69.94063 372.1292 69.40938 371.53546Q68.89375 370.9417 68.1125 370.9417Q67.33125 370.9417 66.8 371.53546Q66.28438 372.1136 66.28438 373.3167ZM72.59688 376.4261L72.59688 370.20734L73.53438 370.20734L73.53438 371.08234Q74.22188 370.0667 75.51875 370.0667Q76.08125 370.0667 76.55 370.26984Q77.03438 370.47296 77.26875 370.8011Q77.50313 371.1292 77.59688 371.5667Q77.64375 371.8636 77.64375 372.59796L77.64375 376.4261L76.59688 376.4261L76.59688 372.64484Q76.59688 371.9886 76.47188 371.6761Q76.34688 371.3636 76.03438 371.1761Q75.72188 370.97296 75.3 370.97296Q74.62813 370.97296 74.12813 371.41046Q73.64375 371.83234 73.64375 373.01984L73.64375 376.4261L72.59688 376.4261ZM81.89375 375.4886L82.05 376.41046Q81.59688 376.5042 81.25313 376.5042Q80.675 376.5042 80.3625 376.33234Q80.05 376.14484 79.90938 375.84796Q79.78438 375.5511 79.78438 374.59796L79.78438 371.01984L79.01875 371.01984L79.01875 370.20734L79.78438 370.20734L79.78438 368.66046L80.83125 368.03546L80.83125 370.20734L81.89375 370.20734L81.89375 371.01984L80.83125 371.01984L80.83125 374.66046Q80.83125 375.1136 80.87813 375.2386Q80.94063 375.3636 81.06563 375.4417Q81.19063 375.51984 81.425 375.51984Q81.6125 375.51984 81.89375 375.4886ZM85.7375 376.4261L85.7375 367.83234L89.55 367.83234Q90.70625 367.83234 91.3 368.0667Q91.89375 368.3011 92.25313 368.89484Q92.6125 369.47296 92.6125 370.1761Q92.6125 371.09796 92.01875 371.72296Q91.425 372.34796 90.19063 372.51984Q90.64375 372.7386 90.87813 372.9417Q91.37813 373.39484 91.81563 374.08234L93.31563 376.4261L91.87813 376.4261L90.75313 374.64484Q90.25313 373.8636 89.925 373.45734Q89.6125 373.0511 89.34688 372.89484Q89.09688 372.72296 88.83125 372.64484Q88.64375 372.6136 88.20625 372.6136L86.87813 372.6136L86.87813 376.4261L85.7375 376.4261ZM86.87813 371.6292L89.33125 371.6292Q90.09688 371.6292 90.53438 371.47296Q90.9875 371.3011 91.20625 370.95734Q91.44063 370.59796 91.44063 370.1761Q91.44063 369.5667 90.9875 369.1761Q90.55 368.78546 89.59688 368.78546L86.87813 368.78546L86.87813 371.6292ZM94.20625 373.3167Q94.20625 371.58234 95.15938 370.7542Q95.95625 370.0667 97.1125 370.0667Q98.39375 370.0667 99.20625 370.91046Q100.03438 371.7386 100.03438 373.22296Q100.03438 374.4261 99.675 375.1136Q99.31563 375.8011 98.6125 376.1917Q97.925 376.5667 97.1125 376.5667Q95.81563 376.5667 95.00313 375.7386Q94.20625 374.89484 94.20625 373.3167ZM95.28438 373.3167Q95.28438 374.5042 95.8 375.09796Q96.33125 375.6917 97.1125 375.6917Q97.90938 375.6917 98.425 375.09796Q98.94063 374.5042 98.94063 373.28546Q98.94063 372.1292 98.40938 371.53546Q97.89375 370.9417 97.1125 370.9417Q96.33125 370.9417 95.8 371.53546Q95.28438 372.1136 95.28438 373.3167ZM102.56563 376.4261L101.58125 376.4261L101.58125 367.83234L102.64375 367.83234L102.64375 370.89484Q103.31563 370.0667 104.34688 370.0667Q104.925 370.0667 105.425 370.3011Q105.94063 370.51984 106.26875 370.9417Q106.6125 371.3636 106.8 371.95734Q106.9875 372.5511 106.9875 373.22296Q106.9875 374.8167 106.19063 375.6917Q105.39375 376.5667 104.3 376.5667Q103.19063 376.5667 102.56563 375.64484L102.56563 376.4261ZM102.55 373.26984Q102.55 374.3792 102.8625 374.8792Q103.3625 375.6917 104.20625 375.6917Q104.89375 375.6917 105.39375 375.09796Q105.90938 374.5042 105.90938 373.3011Q105.90938 372.08234 105.425 371.5042Q104.94063 370.9261 104.25313 370.9261Q103.56563 370.9261 103.05 371.53546Q102.55 372.1292 102.55 373.26984ZM108.20625 373.3167Q108.20625 371.58234 109.15938 370.7542Q109.95625 370.0667 111.1125 370.0667Q112.39375 370.0667 113.20625 370.91046Q114.03438 371.7386 114.03438 373.22296Q114.03438 374.4261 113.675 375.1136Q113.31563 375.8011 112.6125 376.1917Q111.925 376.5667 111.1125 376.5667Q109.81563 376.5667 109.00313 375.7386Q108.20625 374.89484 108.20625 373.3167ZM109.28438 373.3167Q109.28438 374.5042 109.8 375.09796Q110.33125 375.6917 111.1125 375.6917Q111.90938 375.6917 112.425 375.09796Q112.94063 374.5042 112.94063 373.28546Q112.94063 372.1292 112.40938 371.53546Q111.89375 370.9417 111.1125 370.9417Q110.33125 370.9417 109.8 371.53546Q109.28438 372.1136 109.28438 373.3167ZM117.89375 375.4886L118.05 376.41046Q117.59688 376.5042 117.25313 376.5042Q116.675 376.5042 116.3625 376.33234Q116.05 376.14484 115.90938 375.84796Q115.78438 375.5511 115.78438 374.59796L115.78438 371.01984L115.01875 371.01984L115.01875 370.20734L115.78438 370.20734L115.78438 368.66046L116.83125 368.03546L116.83125 370.20734L117.89375 370.20734L117.89375 371.01984L116.83125 371.01984L116.83125 374.66046Q116.83125 375.1136 116.87813 375.2386Q116.94063 375.3636 117.06563 375.4417Q117.19063 375.51984 117.425 375.51984Q117.6125 375.51984 117.89375 375.4886ZM120.78438 376.4261L124.08125 367.83234L125.3 367.83234L128.81563 376.4261L127.53438 376.4261L126.51875 373.8167L122.94063 373.8167L121.9875 376.4261L120.78438 376.4261ZM123.26875 372.89484L126.175 372.89484L125.28438 370.51984Q124.8625 369.4417 124.675 368.7386Q124.50313 369.5667 124.20625 370.3792L123.26875 372.89484ZM128.925 376.4261L128.925 367.83234L130.05 367.83234L130.05 376.4261L128.925 376.4261Z" fill-rule="nonzero"/><path fill="#000000" d="M133.8 406.96564Q133.8 405.4344 134.1125 404.5125Q134.425 403.575 135.03438 403.075Q135.65938 402.575 136.59688 402.575Q137.28438 402.575 137.8 402.85626Q138.33125 403.1375 138.675 403.66876Q139.01875 404.1844 139.20625 404.9344Q139.39375 405.6844 139.39375 406.96564Q139.39375 408.48126 139.08125 409.40314Q138.78438 410.325 138.15938 410.84064Q137.55 411.34064 136.59688 411.34064Q135.3625 411.34064 134.64375 410.45Q133.8 409.3875 133.8 406.96564ZM134.87813 406.96564Q134.87813 409.075 135.37813 409.77814Q135.87813 410.48126 136.59688 410.48126Q137.33125 410.48126 137.81563 409.77814Q138.31563 409.075 138.31563 406.96564Q138.31563 404.84064 137.81563 404.15314Q137.33125 403.45 136.58125 403.45Q135.8625 403.45 135.425 404.0594Q134.87813 404.84064 134.87813 406.96564Z" fill-rule="nonzero"/><path fill="#000000" d="M224.12688 410.1844L224.12688 411.2L218.43938 411.2Q218.43938 410.825 218.56438 410.46564Q218.78313 409.8875 219.25188 409.325Q219.73625 408.7625 220.6425 408.02814Q222.04875 406.8719 222.53313 406.2Q223.03313 405.52814 223.03313 404.9344Q223.03313 404.3094 222.58 403.8875Q222.12688 403.45 221.40813 403.45Q220.6425 403.45 220.18938 403.90314Q219.73625 404.35626 219.72063 405.16876L218.6425 405.0594Q218.75188 403.84064 219.47063 403.21564Q220.205 402.575 221.43938 402.575Q222.67375 402.575 223.3925 403.2625Q224.11125 403.95 224.11125 404.96564Q224.11125 405.48126 223.8925 405.98126Q223.68938 406.46564 223.18938 407.02814Q222.705 407.575 221.58 408.52814Q220.62688 409.325 220.34563 409.6219Q220.08 409.90314 219.90813 410.1844L224.12688 410.1844ZM225.58 408.95L226.68938 408.85626Q226.81438 409.66876 227.25188 410.075Q227.705 410.48126 228.34563 410.48126Q229.09563 410.48126 229.62688 409.90314Q230.15813 409.325 230.15813 408.3875Q230.15813 407.48126 229.6425 406.96564Q229.1425 406.4344 228.31438 406.4344Q227.81438 406.4344 227.3925 406.66876Q226.98625 406.90314 226.75188 407.2625L225.7675 407.1375L226.59563 402.73126L230.87688 402.73126L230.87688 403.73126L227.43938 403.73126L226.98625 406.04376Q227.75188 405.4969 228.59563 405.4969Q229.72063 405.4969 230.48625 406.27814Q231.2675 407.0594 231.2675 408.29376Q231.2675 409.45 230.59563 410.3094Q229.7675 411.34064 228.34563 411.34064Q227.17375 411.34064 226.42375 410.6844Q225.68938 410.02814 225.58 408.95Z" fill-rule="nonzero"/><path fill="#000000" d="M306.86 408.95L307.96936 408.85626Q308.09436 409.66876 308.53186 410.075Q308.985 410.48126 309.6256 410.48126Q310.3756 410.48126 310.90686 409.90314Q311.4381 409.325 311.4381 408.3875Q311.4381 407.48126 310.9225 406.96564Q310.4225 406.4344 309.59436 406.4344Q309.09436 406.4344 308.6725 406.66876Q308.26624 406.90314 308.03186 407.2625L307.0475 407.1375L307.8756 402.73126L312.15686 402.73126L312.15686 403.73126L308.71936 403.73126L308.26624 406.04376Q309.03186 405.4969 309.8756 405.4969Q311.0006 405.4969 311.76624 406.27814Q312.5475 407.0594 312.5475 408.29376Q312.5475 409.45 311.8756 410.3094Q311.0475 411.34064 309.6256 411.34064Q308.45374 411.34064 307.70374 410.6844Q306.96936 410.02814 306.86 408.95ZM313.86 406.96564Q313.86 405.4344 314.1725 404.5125Q314.485 403.575 315.09436 403.075Q315.71936 402.575 316.65686 402.575Q317.34436 402.575 317.86 402.85626Q318.39124 403.1375 318.735 403.66876Q319.07874 404.1844 319.26624 404.9344Q319.45374 405.6844 319.45374 406.96564Q319.45374 408.48126 319.14124 409.40314Q318.84436 410.325 318.21936 410.84064Q317.61 411.34064 316.65686 411.34064Q315.4225 411.34064 314.70374 410.45Q313.86 409.3875 313.86 406.96564ZM314.9381 406.96564Q314.9381 409.075 315.4381 409.77814Q315.9381 410.48126 316.65686 410.48126Q317.39124 410.48126 317.8756 409.77814Q318.3756 409.075 318.3756 406.96564Q318.3756 404.84064 317.8756 404.15314Q317.39124 403.45 316.64124 403.45Q315.9225 403.45 315.485 404.0594Q314.9381 404.84064 314.9381 406.96564Z" fill-rule="nonzero"/><path fill="#000000" d="M395.2025 403.73126L395.2025 402.71564L400.765 402.71564L400.765 403.54376Q399.9525 404.41876 399.14 405.8719Q398.34314 407.3094 397.90564 408.84064Q397.5775 409.91876 397.4994 411.2L396.40564 411.2Q396.42126 410.1844 396.79626 408.7469Q397.1869 407.3094 397.89 405.98126Q398.60876 404.65314 399.42126 403.73126L395.2025 403.73126ZM402.14 408.95L403.2494 408.85626Q403.3744 409.66876 403.8119 410.075Q404.265 410.48126 404.90564 410.48126Q405.65564 410.48126 406.1869 409.90314Q406.71814 409.325 406.71814 408.3875Q406.71814 407.48126 406.2025 406.96564Q405.7025 406.4344 404.8744 406.4344Q404.3744 406.4344 403.9525 406.66876Q403.54626 406.90314 403.3119 407.2625L402.3275 407.1375L403.15564 402.73126L407.4369 402.73126L407.4369 403.73126L403.9994 403.73126L403.54626 406.04376Q404.3119 405.4969 405.15564 405.4969Q406.28064 405.4969 407.04626 406.27814Q407.8275 407.0594 407.8275 408.29376Q407.8275 409.45 407.15564 410.3094Q406.3275 411.34064 404.90564 411.34064Q403.73376 411.34064 402.98376 410.6844Q402.2494 410.02814 402.14 408.95Z" fill-rule="nonzero"/><path fill="#000000" d="M483.88876 411.2L482.8419 411.2L482.8419 404.48126Q482.45126 404.84064 481.82626 405.21564Q481.2169 405.575 480.7325 405.7469L480.7325 404.73126Q481.6075 404.3094 482.26376 403.73126Q482.93564 403.1375 483.2169 402.575L483.88876 402.575L483.88876 411.2ZM486.92 406.96564Q486.92 405.4344 487.2325 404.5125Q487.545 403.575 488.1544 403.075Q488.7794 402.575 489.7169 402.575Q490.4044 402.575 490.92 402.85626Q491.45126 403.1375 491.795 403.66876Q492.13876 404.1844 492.32626 404.9344Q492.51376 405.6844 492.51376 406.96564Q492.51376 408.48126 492.20126 409.40314Q491.9044 410.325 491.2794 410.84064Q490.67 411.34064 489.7169 411.34064Q488.4825 411.34064 487.76376 410.45Q486.92 409.3875 486.92 406.96564ZM487.99814 406.96564Q487.99814 409.075 488.49814 409.77814Q488.99814 410.48126 489.7169 410.48126Q490.45126 410.48126 490.93564 409.77814Q491.43564 409.075 491.43564 406.96564Q491.43564 404.84064 490.93564 404.15314Q490.45126 403.45 489.70126 403.45Q488.9825 403.45 488.545 404.0594Q487.99814 404.84064 487.99814 406.96564ZM493.92 406.96564Q493.92 405.4344 494.2325 404.5125Q494.545 403.575 495.1544 403.075Q495.7794 402.575 496.7169 402.575Q497.4044 402.575 497.92 402.85626Q498.45126 403.1375 498.795 403.66876Q499.13876 404.1844 499.32626 404.9344Q499.51376 405.6844 499.51376 406.96564Q499.51376 408.48126 499.20126 409.40314Q498.9044 410.325 498.2794 410.84064Q497.67 411.34064 496.7169 411.34064Q495.4825 411.34064 494.76376 410.45Q493.92 409.3875 493.92 406.96564ZM494.99814 406.96564Q494.99814 409.075 495.49814 409.77814Q495.99814 410.48126 496.7169 410.48126Q497.45126 410.48126 497.93564 409.77814Q498.43564 409.075 498.43564 406.96564Q498.43564 404.84064 497.93564 404.15314Q497.45126 403.45 496.70126 403.45Q495.9825 403.45 495.545 404.0594Q494.99814 404.84064 494.99814 406.96564Z" fill-rule="nonzero"/><path fill="#000000" d="M572.16876 411.2L571.1219 411.2L571.1219 404.48126Q570.73126 404.84064 570.10626 405.21564Q569.4969 405.575 569.0125 405.7469L569.0125 404.73126Q569.8875 404.3094 570.54376 403.73126Q571.21564 403.1375 571.4969 402.575L572.16876 402.575L572.16876 411.2ZM580.7469 410.1844L580.7469 411.2L575.0594 411.2Q575.0594 410.825 575.1844 410.46564Q575.40314 409.8875 575.8719 409.325Q576.35626 408.7625 577.2625 408.02814Q578.66876 406.8719 579.15314 406.2Q579.65314 405.52814 579.65314 404.9344Q579.65314 404.3094 579.2 403.8875Q578.7469 403.45 578.02814 403.45Q577.2625 403.45 576.8094 403.90314Q576.35626 404.35626 576.34064 405.16876L575.2625 405.0594Q575.3719 403.84064 576.09064 403.21564Q576.825 402.575 578.0594 402.575Q579.29376 402.575 580.0125 403.2625Q580.73126 403.95 580.73126 404.96564Q580.73126 405.48126 580.5125 405.98126Q580.3094 406.46564 579.8094 407.02814Q579.325 407.575 578.2 408.52814Q577.2469 409.325 576.96564 409.6219Q576.7 409.90314 576.52814 410.1844L580.7469 410.1844ZM582.2 408.95L583.3094 408.85626Q583.4344 409.66876 583.8719 410.075Q584.325 410.48126 584.96564 410.48126Q585.71564 410.48126 586.2469 409.90314Q586.77814 409.325 586.77814 408.3875Q586.77814 407.48126 586.2625 406.96564Q585.7625 406.4344 584.9344 406.4344Q584.4344 406.4344 584.0125 406.66876Q583.60626 406.90314 583.3719 407.2625L582.3875 407.1375L583.21564 402.73126L587.4969 402.73126L587.4969 403.73126L584.0594 403.73126L583.60626 406.04376Q584.3719 405.4969 585.21564 405.4969Q586.34064 405.4969 587.10626 406.27814Q587.8875 407.0594 587.8875 408.29376Q587.8875 409.45 587.21564 410.3094Q586.3875 411.34064 584.96564 411.34064Q583.79376 411.34064 583.04376 410.6844Q582.3094 410.02814 582.2 408.95Z" fill-rule="nonzero"/><path fill="#000000" d="M26.9875 40.8L26.9875 28.175L22.26875 28.175L22.26875 26.4875L33.6125 26.4875L33.6125 28.175L28.878124 28.175L28.878124 40.8L26.9875 40.8ZM34.471874 35.6125Q34.471874 32.7375 36.065624 31.346874Q37.409374 30.190624 39.33125 30.190624Q41.471874 30.190624 42.815624 31.596874Q44.175 33.003124 44.175 35.471874Q44.175 37.471874 43.58125 38.628124Q42.9875 39.76875 41.83125 40.409374Q40.690624 41.034374 39.33125 41.034374Q37.14375 41.034374 35.8 39.64375Q34.471874 38.2375 34.471874 35.6125ZM36.26875 35.6125Q36.26875 37.6125 37.128124 38.596874Q38.003124 39.58125 39.33125 39.58125Q40.64375 39.58125 41.503124 38.596874Q42.378124 37.596874 42.378124 35.55Q42.378124 33.628124 41.503124 32.64375Q40.628124 31.64375 39.33125 31.64375Q38.003124 31.64375 37.128124 32.64375Q36.26875 33.628124 36.26875 35.6125ZM46.1125 44.76875L46.1125 30.425L47.721874 30.425L47.721874 31.76875Q48.284374 30.9875 48.9875 30.596874Q49.70625 30.190624 50.721874 30.190624Q52.05 30.190624 53.065624 30.878124Q54.08125 31.565624 54.596874 32.815624Q55.128124 34.05 55.128124 35.534374Q55.128124 37.128124 54.55 38.409374Q53.9875 39.675 52.89375 40.3625Q51.8 41.034374 50.596874 41.034374Q49.721874 41.034374 49.01875 40.659374Q48.33125 40.284374 47.878124 39.721874L47.878124 44.76875L46.1125 44.76875ZM47.70625 35.675Q47.70625 37.675 48.51875 38.628124Q49.33125 39.58125 50.4875 39.58125Q51.659374 39.58125 52.4875 38.596874Q53.33125 37.6125 53.33125 35.51875Q53.33125 33.55 52.503124 32.565624Q51.690624 31.565624 50.565624 31.565624Q49.440624 31.565624 48.565624 32.628124Q47.70625 33.675 47.70625 35.675ZM69.25313 40.8L67.4875 40.8L67.4875 29.596874Q66.8625 30.20625 65.83125 30.815624Q64.8 31.409374 63.971874 31.721874L63.971874 30.01875Q65.45625 29.33125 66.55 28.346874Q67.65938 27.346874 68.1125 26.425L69.25313 26.425L69.25313 40.8ZM73.62813 33.7375Q73.62813 31.20625 74.14375 29.659374Q74.675 28.096874 75.70625 27.26875Q76.7375 26.425 78.3 26.425Q79.45625 26.425 80.31563 26.89375Q81.19063 27.346874 81.75313 28.221874Q82.31563 29.096874 82.64375 30.3625Q82.97188 31.6125 82.97188 33.7375Q82.97188 36.253124 82.44063 37.8Q81.925 39.346874 80.89375 40.20625Q79.87813 41.05 78.3 41.05Q76.22188 41.05 75.05 39.565624Q73.62813 37.76875 73.62813 33.7375ZM75.44063 33.7375Q75.44063 37.26875 76.25313 38.440624Q77.08125 39.596874 78.3 39.596874Q79.50313 39.596874 80.33125 38.425Q81.15938 37.253124 81.15938 33.7375Q81.15938 30.20625 80.33125 29.05Q79.50313 27.878124 78.28438 27.878124Q77.06563 27.878124 76.34688 28.909374Q75.44063 30.20625 75.44063 33.7375ZM91.34688 40.8L91.34688 26.4875L96.7375 26.4875Q98.175 26.4875 98.925 26.6125Q99.97188 26.8 100.69063 27.3Q101.40938 27.784374 101.83125 28.675Q102.26875 29.565624 102.26875 30.628124Q102.26875 32.45625 101.09688 33.721874Q99.94063 34.971874 96.90938 34.971874L93.2375 34.971874L93.2375 40.8L91.34688 40.8ZM93.2375 33.284374L96.94063 33.284374Q98.76875 33.284374 99.53438 32.6125Q100.31563 31.925 100.31563 30.675Q100.31563 29.784374 99.8625 29.14375Q99.40938 28.503124 98.675 28.3Q98.19063 28.175 96.89375 28.175L93.2375 28.175L93.2375 33.284374ZM110.90938 40.8L110.90938 39.26875Q109.70625 41.034374 107.62813 41.034374Q106.70625 41.034374 105.90938 40.690624Q105.1125 40.33125 104.72188 39.8Q104.34688 39.26875 104.19063 38.4875Q104.08125 37.971874 104.08125 36.846874L104.08125 30.425L105.83125 30.425L105.83125 36.175Q105.83125 37.55 105.94063 38.034374Q106.1125 38.721874 106.64375 39.128124Q107.19063 39.51875 107.97188 39.51875Q108.76875 39.51875 109.45625 39.1125Q110.15938 38.70625 110.44063 38.01875Q110.7375 37.315624 110.7375 35.9875L110.7375 30.425L112.4875 30.425L112.4875 40.8L110.90938 40.8ZM115.7375 40.8L114.1125 40.8L114.1125 26.4875L115.8625 26.4875L115.8625 31.596874Q116.9875 30.190624 118.70625 30.190624Q119.65938 30.190624 120.51875 30.58125Q121.37813 30.971874 121.925 31.675Q122.47188 32.3625 122.78438 33.346874Q123.09688 34.33125 123.09688 35.45625Q123.09688 38.128124 121.78438 39.58125Q120.47188 41.034374 118.62813 41.034374Q116.78438 41.034374 115.7375 39.503124L115.7375 40.8ZM115.72188 35.534374Q115.72188 37.39375 116.22188 38.2375Q117.06563 39.58125 118.47188 39.58125Q119.62813 39.58125 120.45625 38.58125Q121.3 37.58125 121.3 35.596874Q121.3 33.565624 120.4875 32.6125Q119.69063 31.64375 118.55 31.64375Q117.39375 31.64375 116.55 32.64375Q115.72188 33.64375 115.72188 35.534374ZM125.08125 40.8L125.08125 26.4875L126.83125 26.4875L126.83125 40.8L125.08125 40.8ZM129.12813 28.503124L129.12813 26.4875L130.89375 26.4875L130.89375 28.503124L129.12813 28.503124ZM129.12813 40.8L129.12813 30.425L130.89375 30.425L130.89375 40.8L129.12813 40.8ZM139.89375 37.003124L141.6125 37.221874Q141.33125 39.01875 140.15938 40.034374Q139.00313 41.034374 137.3 41.034374Q135.175 41.034374 133.87813 39.64375Q132.58125 38.253124 132.58125 35.659374Q132.58125 33.971874 133.12813 32.721874Q133.69063 31.45625 134.83125 30.83125Q135.97188 30.190624 137.31563 30.190624Q139.00313 30.190624 140.06563 31.05Q141.14375 31.909374 141.45625 33.471874L139.7375 33.7375Q139.50313 32.690624 138.87813 32.175Q138.25313 31.64375 137.37813 31.64375Q136.05 31.64375 135.22188 32.596874Q134.39375 33.55 134.39375 35.596874Q134.39375 37.690624 135.19063 38.64375Q135.9875 39.58125 137.28438 39.58125Q138.31563 39.58125 139.00313 38.95625Q139.70625 38.315624 139.89375 37.003124ZM149.89375 39.51875Q148.90938 40.346874 148.00313 40.690624Q147.09688 41.034374 146.06563 41.034374Q144.3625 41.034374 143.44063 40.20625Q142.51875 39.3625 142.51875 38.065624Q142.51875 37.3 142.8625 36.675Q143.22188 36.05 143.78438 35.675Q144.34688 35.284374 145.05 35.08125Q145.56563 34.95625 146.6125 34.815624Q148.7375 34.565624 149.7375 34.221874Q149.75313 33.8625 149.75313 33.753124Q149.75313 32.690624 149.25313 32.2375Q148.58125 31.64375 147.25313 31.64375Q146.00313 31.64375 145.40938 32.08125Q144.83125 32.51875 144.55 33.628124L142.83125 33.39375Q143.06563 32.284374 143.59688 31.6125Q144.12813 30.925 145.14375 30.565624Q146.15938 30.190624 147.50313 30.190624Q148.83125 30.190624 149.65938 30.503124Q150.4875 30.815624 150.87813 31.3Q151.26875 31.76875 151.425 32.4875Q151.51875 32.940624 151.51875 34.1125L151.51875 36.45625Q151.51875 38.909374 151.62813 39.565624Q151.7375 40.20625 152.08125 40.8L150.2375 40.8Q149.97188 40.253124 149.89375 39.51875ZM149.7375 35.596874Q148.78438 35.9875 146.8625 36.253124Q145.78438 36.409374 145.33125 36.6125Q144.89375 36.8 144.64375 37.175Q144.39375 37.55 144.39375 38.01875Q144.39375 38.721874 144.925 39.190624Q145.45625 39.659374 146.4875 39.659374Q147.50313 39.659374 148.28438 39.221874Q149.08125 38.76875 149.45625 38.003124Q149.7375 37.39375 149.7375 36.2375L149.7375 35.596874ZM157.95625 39.221874L158.20625 40.784374Q157.47188 40.940624 156.87813 40.940624Q155.925 40.940624 155.39375 40.64375Q154.87813 40.33125 154.65938 39.846874Q154.44063 39.346874 154.44063 37.76875L154.44063 31.8L153.15938 31.8L153.15938 30.425L154.44063 30.425L154.44063 27.8625L156.19063 26.8L156.19063 30.425L157.95625 30.425L157.95625 31.8L156.19063 31.8L156.19063 37.8625Q156.19063 38.6125 156.28438 38.83125Q156.37813 39.034374 156.58125 39.175Q156.8 39.3 157.19063 39.3Q157.47188 39.3 157.95625 39.221874ZM160.12813 28.503124L160.12813 26.4875L161.89375 26.4875L161.89375 28.503124L160.12813 28.503124ZM160.12813 40.8L160.12813 30.425L161.89375 30.425L161.89375 40.8L160.12813 40.8ZM163.47188 35.6125Q163.47188 32.7375 165.06563 31.346874Q166.40938 30.190624 168.33125 30.190624Q170.47188 30.190624 171.81563 31.596874Q173.175 33.003124 173.175 35.471874Q173.175 37.471874 172.58125 38.628124Q171.9875 39.76875 170.83125 40.409374Q169.69063 41.034374 168.33125 41.034374Q166.14375 41.034374 164.8 39.64375Q163.47188 38.2375 163.47188 35.6125ZM165.26875 35.6125Q165.26875 37.6125 166.12813 38.596874Q167.00313 39.58125 168.33125 39.58125Q169.64375 39.58125 170.50313 38.596874Q171.37813 37.596874 171.37813 35.55Q171.37813 33.628124 170.50313 32.64375Q169.62813 31.64375 168.33125 31.64375Q167.00313 31.64375 166.12813 32.64375Q165.26875 33.628124 165.26875 35.6125ZM175.1125 40.8L175.1125 30.425L176.70625 30.425L176.70625 31.909374Q177.84688 30.190624 180.00313 30.190624Q180.94063 30.190624 181.72188 30.534374Q182.51875 30.8625 182.90938 31.409374Q183.3 31.95625 183.45625 32.70625Q183.55 33.20625 183.55 34.425L183.55 40.8L181.78438 40.8L181.78438 34.4875Q181.78438 33.409374 181.58125 32.878124Q181.37813 32.346874 180.84688 32.034374Q180.33125 31.721874 179.62813 31.721874Q178.50313 31.721874 177.69063 32.440624Q176.87813 33.14375 176.87813 35.128124L176.87813 40.8L175.1125 40.8ZM195.44063 40.8L189.89375 26.4875L191.94063 26.4875L195.65938 36.878124Q196.1125 38.128124 196.40938 39.221874Q196.7375 38.05 197.19063 36.878124L201.05 26.4875L202.9875 26.4875L197.37813 40.8L195.44063 40.8ZM211.22188 37.45625L213.03438 37.690624Q212.6125 39.26875 211.44063 40.159374Q210.28438 41.034374 208.47188 41.034374Q206.20625 41.034374 204.8625 39.64375Q203.53438 38.2375 203.53438 35.70625Q203.53438 33.08125 204.87813 31.64375Q206.22188 30.190624 208.37813 30.190624Q210.45625 30.190624 211.76875 31.6125Q213.09688 33.01875 213.09688 35.596874Q213.09688 35.753124 213.08125 36.065624L205.34688 36.065624Q205.44063 37.76875 206.31563 38.675Q207.19063 39.58125 208.4875 39.58125Q209.45625 39.58125 210.12813 39.08125Q210.81563 38.565624 211.22188 37.45625ZM205.44063 34.6125L211.2375 34.6125Q211.12813 33.315624 210.58125 32.659374Q209.7375 31.64375 208.39375 31.64375Q207.19063 31.64375 206.3625 32.45625Q205.53438 33.253124 205.44063 34.6125ZM215.1125 40.8L215.1125 30.425L216.70625 30.425L216.70625 31.909374Q217.84688 30.190624 220.00313 30.190624Q220.94063 30.190624 221.72188 30.534374Q222.51875 30.8625 222.90938 31.409374Q223.3 31.95625 223.45625 32.70625Q223.55 33.20625 223.55 34.425L223.55 40.8L221.78438 40.8L221.78438 34.4875Q221.78438 33.409374 221.58125 32.878124Q221.37813 32.346874 220.84688 32.034374Q220.33125 31.721874 219.62813 31.721874Q218.50313 31.721874 217.69063 32.440624Q216.87813 33.14375 216.87813 35.128124L216.87813 40.8L215.1125 40.8ZM231.90938 40.8L231.90938 39.26875Q230.70625 41.034374 228.62813 41.034374Q227.70625 41.034374 226.90938 40.690624Q226.1125 40.33125 225.72188 39.8Q225.34688 39.26875 225.19063 38.4875Q225.08125 37.971874 225.08125 36.846874L225.08125 30.425L226.83125 30.425L226.83125 36.175Q226.83125 37.55 226.94063 38.034374Q227.1125 38.721874 227.64375 39.128124Q228.19063 39.51875 228.97188 39.51875Q229.76875 39.51875 230.45625 39.1125Q231.15938 38.70625 231.44063 38.01875Q231.7375 37.315624 231.7375 35.9875L231.7375 30.425L233.4875 30.425L233.4875 40.8L231.90938 40.8ZM242.22188 37.45625L244.03438 37.690624Q243.6125 39.26875 242.44063 40.159374Q241.28438 41.034374 239.47188 41.034374Q237.20625 41.034374 235.8625 39.64375Q234.53438 38.2375 234.53438 35.70625Q234.53438 33.08125 235.87813 31.64375Q237.22188 30.190624 239.37813 30.190624Q241.45625 30.190624 242.76875 31.6125Q244.09688 33.01875 244.09688 35.596874Q244.09688 35.753124 244.08125 36.065624L236.34688 36.065624Q236.44063 37.76875 237.31563 38.675Q238.19063 39.58125 239.4875 39.58125Q240.45625 39.58125 241.12813 39.08125Q241.81563 38.565624 242.22188 37.45625ZM236.44063 34.6125L242.2375 34.6125Q242.12813 33.315624 241.58125 32.659374Q240.7375 31.64375 239.39375 31.64375Q238.19063 31.64375 237.3625 32.45625Q236.53438 33.253124 236.44063 34.6125ZM245.40938 37.70625L247.15938 37.425Q247.3 38.471874 247.97188 39.034374Q248.64375 39.58125 249.84688 39.58125Q251.05 39.58125 251.62813 39.096874Q252.22188 38.596874 252.22188 37.940624Q252.22188 37.346874 251.70625 37.003124Q251.34688 36.76875 249.90938 36.409374Q247.97188 35.909374 247.22188 35.565624Q246.4875 35.20625 246.09688 34.58125Q245.70625 33.940624 245.70625 33.175Q245.70625 32.4875 246.01875 31.89375Q246.34688 31.3 246.89375 30.909374Q247.3 30.6125 248.00313 30.409374Q248.72188 30.190624 249.53438 30.190624Q250.75313 30.190624 251.675 30.55Q252.59688 30.89375 253.03438 31.503124Q253.47188 32.096874 253.64375 33.096874L251.925 33.33125Q251.8 32.534374 251.2375 32.096874Q250.675 31.64375 249.65938 31.64375Q248.44063 31.64375 247.925 32.05Q247.40938 32.440624 247.40938 32.971874Q247.40938 33.315624 247.62813 33.596874Q247.83125 33.878124 248.3 34.065624Q248.56563 34.159374 249.84688 34.503124Q251.72188 35.003124 252.45625 35.33125Q253.19063 35.64375 253.6125 36.253124Q254.03438 36.846874 254.03438 37.753124Q254.03438 38.628124 253.51875 39.409374Q253.00313 40.190624 252.03438 40.6125Q251.06563 41.034374 249.84688 41.034374Q247.83125 41.034374 246.76875 40.190624Q245.70625 39.346874 245.40938 37.70625Z" fill-rule="nonzero"/></svg>